<svg width="80" height="90" viewBox="0 0 80 90" fill="none" xmlns="http://www.w3.org/2000/svg">
<path d="M57.4112 39.2189C57.2507 40.2139 56.3841 40.92 55.4212 40.92H25.1696C22.8578 40.92 22.9332 37.8595 22.9332 36.2218C22.9332 10.8717 61.5431 13.9731 57.4117 39.2181L57.4112 39.2189ZM26.9876 36.8749H53.6008C54.4033 18.0412 26.1621 17.6455 26.9876 36.8749Z" fill="#6BB8CB"/>
<path d="M40.2895 0.0109863C48.5503 0.0109863 51.9751 10.1984 46.4216 15.2168C40.2366 20.8242 31.4508 16.191 31.4508 8.8497C31.4508 6.42074 32.4458 4.20524 34.0513 2.60046H34.0409C35.6457 1.00603 37.8508 0.0109863 40.2901 0.0109863H40.2895ZM43.6821 5.46835C41.8093 3.59551 38.781 3.59551 36.9081 5.46835L36.8977 5.4579C32.425 10.4337 39.4124 16.5121 43.6822 12.2424C45.555 10.3695 45.555 7.33078 43.6822 5.46841L43.6821 5.46835Z" fill="#6BB8CB"/>
<path d="M38.6306 45.0738C38.6306 42.409 42.6861 42.409 42.6861 45.0738V55.807L50.1983 61.8854C52.2638 63.5544 49.7273 66.7007 47.673 65.0317L40.6101 59.3177L33.098 64.9571C30.9901 66.5411 28.5611 63.309 30.6795 61.7258L38.6306 55.7655V45.0738Z" fill="#6BB8CB"/>
<path d="M18.7798 48.8612C26.5809 48.8612 30.6259 58.3636 25.0291 63.9499C19.4538 69.5252 9.94034 65.5122 9.94034 57.7007C9.94034 52.8317 13.9106 48.8612 18.7798 48.8612ZM22.1724 54.3081C17.6998 49.8457 10.9258 56.6302 15.388 61.0925C19.8503 65.5549 26.6451 58.7807 22.1724 54.3081Z" fill="#6BB8CB"/>
<path d="M79.6898 88.1992C79.5293 89.1942 78.6732 89.9004 77.6998 89.9004H47.4482C45.1364 89.9004 45.2119 86.8399 45.2119 85.1917C45.2119 59.8512 83.8218 62.9545 79.6904 88.1983L79.6898 88.1992ZM49.2777 85.8553H75.8795C76.6819 67.0216 48.4407 66.6259 49.2777 85.8553Z" fill="#6BB8CB"/>
<path d="M62.2911 48.8173C70.0922 48.8173 74.1269 58.3196 68.5404 63.9165C62.9651 69.4918 53.4517 65.4788 53.4517 57.6673C53.4517 52.7877 57.422 48.8175 62.2911 48.8175V48.8173ZM65.6838 54.2641C61.2111 49.8018 54.4371 56.5968 58.8993 61.0591C63.3616 65.5215 70.1459 58.7473 65.6838 54.2641Z" fill="#6BB8CB"/>
<path d="M34.4799 88.1992C34.3194 89.1942 33.4633 89.9004 32.4899 89.9004H2.24788C-0.0742527 89.9004 0.000271104 86.8399 0.000271104 85.1917C0.000271104 59.8512 38.6102 62.9545 34.4788 88.1983L34.4799 88.1992ZM4.06783 85.8553H30.6696C31.4832 67.0216 3.24232 66.6259 4.06783 85.8553Z" fill="#6BB8CB"/>
</svg>
