<svg width="86" height="86" viewBox="0 0 86 86" fill="none" xmlns="http://www.w3.org/2000/svg">
<path d="M68.0836 50.1667C63.3316 50.1667 58.7746 52.0543 55.4145 55.4144C52.0545 58.7745 50.1669 63.3314 50.1669 68.0834C50.1669 72.8355 52.0545 77.3924 55.4145 80.7525C58.7746 84.1126 63.3316 86.0001 68.0836 86.0001C72.8357 86.0001 77.3926 84.1126 80.7527 80.7525C84.1128 77.3924 86.0003 72.8355 86.0003 68.0834C86.0003 63.3314 84.1128 58.7745 80.7527 55.4144C77.3926 52.0543 72.8357 50.1667 68.0836 50.1667ZM68.0836 82.4168C64.2819 82.4168 60.6364 80.9065 57.9481 78.2189C55.2606 75.5307 53.7503 71.885 53.7503 68.0834C53.7503 64.2819 55.2606 60.6362 57.9481 57.948C60.6364 55.2605 64.2821 53.7501 68.0836 53.7501C71.8852 53.7501 75.5309 55.2604 78.2191 57.948C80.9066 60.6362 82.417 64.2819 82.417 68.0834C82.417 71.885 80.9066 75.5307 78.2191 78.2189C75.5309 80.9064 71.8852 82.4168 68.0836 82.4168Z" fill="#6BB8CB"/>
<path d="M36.7292 38.5209H42.1042C43.0938 38.5209 43.8958 39.5105 43.8958 40.3125V45.6875C43.8958 46.6772 43.0938 47.4792 42.1042 47.4792H36.7292C35.7396 47.4792 34.9375 46.4896 34.9375 45.6875V40.3125C34.9375 39.3229 35.7396 38.5209 36.7292 38.5209Z" fill="#6BB8CB"/>
<path d="M58.2291 38.5209H63.6041C64.5937 38.5209 65.3958 39.5105 65.3958 40.3125V45.6875C65.3958 46.6772 64.5937 47.4792 63.6041 47.4792H58.2291C57.2395 47.4792 56.4374 46.4896 56.4374 45.6875V40.3125C56.4374 39.3229 57.2395 38.5209 58.2291 38.5209Z" fill="#6BB8CB"/>
<path d="M36.7292 56.4376H42.1042C43.0938 56.4376 43.8958 57.4272 43.8958 58.2293V63.6043C43.8958 64.5939 43.0938 65.396 42.1042 65.396H36.7292C35.7396 65.396 34.9375 64.4064 34.9375 63.6043V58.2293C34.9375 57.2397 35.7396 56.4376 36.7292 56.4376Z" fill="#6BB8CB"/>
<path d="M15.2292 38.5209H20.6042C21.5938 38.5209 22.3958 39.5105 22.3958 40.3125V45.6875C22.3958 46.6772 21.5938 47.4792 20.6042 47.4792H15.2292C14.2396 47.4792 13.4375 46.4896 13.4375 45.6875V40.3125C13.4375 39.3229 14.2396 38.5209 15.2292 38.5209Z" fill="#6BB8CB"/>
<path d="M15.2292 56.4376H20.6042C21.5938 56.4376 22.3958 57.4272 22.3958 58.2293V63.6043C22.3958 64.5939 21.5938 65.396 20.6042 65.396H15.2292C14.2396 65.396 13.4375 64.4064 13.4375 63.6043V58.2293C13.4375 57.2397 14.2396 56.4376 15.2292 56.4376Z" fill="#6BB8CB"/>
<path d="M73.0818 62.3321L65.3959 70.0363L63.085 67.7072C62.3824 67.0052 61.243 67.0052 60.5403 67.7072C59.8384 68.4098 59.8384 69.5492 60.5403 70.2519L64.1237 73.8352C64.4603 74.1739 64.918 74.365 65.396 74.365C65.8741 74.365 66.3318 74.1739 66.6684 73.8352L75.6268 64.8769C76.3287 64.1742 76.3287 63.0348 75.6268 62.3321C74.9241 61.6302 73.7847 61.6302 73.0821 62.3321H73.0818Z" fill="#6BB8CB"/>
<path d="M45.7234 75.2502H8.95838C7.53275 75.2502 6.16588 74.684 5.15735 73.6762C4.14954 72.6677 3.58334 71.3008 3.58334 69.8752V30.4585H75.2501V45.7233C75.2501 46.7129 76.0521 47.515 77.0418 47.515C78.0314 47.515 78.8334 46.7129 78.8334 45.7233V16.1249C78.8334 13.7488 77.8893 11.4702 76.2095 9.79048C74.5297 8.1108 72.251 7.16659 69.8751 7.16659H63.6042V6.27075C63.6042 4.03045 62.4089 1.96018 60.4688 0.839845C58.5288 -0.279948 56.138 -0.279948 54.198 0.839845C52.258 1.96034 51.0626 4.03063 51.0626 6.27075V7.16659H27.7709V6.27075C27.7709 4.03045 26.5755 1.96018 24.6354 0.839845C22.6954 -0.279948 20.3046 -0.279948 18.3646 0.839845C16.4246 1.96034 15.2292 4.03063 15.2292 6.27075V7.16659H8.95834C6.58223 7.16659 4.30359 8.11071 2.6239 9.79048C0.944209 11.4703 0 13.749 0 16.1249V69.875C0 72.2511 0.944119 74.5297 2.6239 76.2094C4.30368 77.8891 6.58241 78.8333 8.95834 78.8333H45.7234C46.713 78.8333 47.5151 78.0313 47.5151 77.0417C47.5151 76.0521 46.713 75.25 45.7234 75.25L45.7234 75.2502ZM54.6818 6.27097C54.6818 5.31074 55.1941 4.4234 56.0255 3.94323C56.857 3.46382 57.8815 3.46382 58.713 3.94323C59.5445 4.42334 60.0568 5.31078 60.0568 6.27097V11.646C60.0568 12.6062 59.5445 13.4935 58.713 13.9737C57.8816 14.4531 56.857 14.4531 56.0255 13.9737C55.1941 13.4936 54.6818 12.6062 54.6818 11.646V6.27097ZM18.8484 6.27097C18.8484 5.31074 19.3607 4.4234 20.1921 3.94323C21.0236 3.46382 22.0481 3.46382 22.8796 3.94323C23.7111 4.42334 24.2234 5.31078 24.2234 6.27097V11.646C24.2234 12.6062 23.7111 13.4935 22.8796 13.9737C22.0482 14.4531 21.0237 14.4531 20.1921 13.9737C19.3607 13.4936 18.8484 12.6062 18.8484 11.646V6.27097ZM8.95856 10.7501H15.2294V11.646C15.2294 13.8863 16.4248 15.9565 18.3648 17.0769C20.3048 18.1967 22.6956 18.1967 24.6357 17.0769C26.5757 15.9564 27.7711 13.8861 27.7711 11.646V10.7501H51.0628V11.646C51.0628 13.8863 52.2582 15.9565 54.1982 17.0769C56.1382 18.1967 58.529 18.1967 60.469 17.0769C62.4091 15.9564 63.6045 13.8861 63.6045 11.646V10.7501H69.8753C71.3009 10.7501 72.6678 11.3163 73.6763 12.3242C74.6841 13.3327 75.2503 14.6995 75.2503 16.1252V26.8752H3.58359V16.1252C3.58359 14.6995 4.14979 13.3327 5.15761 12.3242C6.16612 11.3163 7.533 10.7501 8.95863 10.7501H8.95856Z" fill="#6BB8CB"/>
</svg>
