<svg width="90" height="80" viewBox="0 0 90 80" fill="none" xmlns="http://www.w3.org/2000/svg">
<path d="M82.3827 5.71259H73.5575C69.2023 2.01246 63.7981 0 58.0411 0C52.5677 0 47.3865 1.82202 43.0564 5.27327C42.8769 5.41634 42.709 5.5681 42.5341 5.71435L7.48941 5.71356C3.36979 5.71356 0 9.12209 0 13.3313V64.7507C0 68.9529 3.36044 72.3691 7.48941 72.3691H35.5729V76.1775H31.8287C30.7951 76.1775 29.9574 77.0296 29.9574 78.0809C29.9574 79.1338 30.7951 79.986 31.8287 79.986H58.0402C59.0738 79.986 59.9131 79.1338 59.9131 78.0809C59.9131 77.0296 59.0753 76.1775 58.0402 76.1775H54.296L54.2967 72.3683H82.3803C86.51 72.3683 89.8703 68.9519 89.8703 64.7499V31.8221C89.8703 30.7747 89.0271 29.9171 87.9973 29.9171C86.9676 29.9171 86.1244 30.7747 86.1244 31.8221V53.3227L3.74196 53.3219V13.3298C3.74196 11.2343 5.42681 9.52136 7.48616 9.52136H38.8722C35.5422 13.8286 33.698 19.1437 33.698 24.7576C33.698 26.7116 33.949 28.7248 34.4433 30.7453V30.7485C36.16 37.7584 40.7957 43.6386 47.1612 46.882C47.1643 46.8843 47.1698 46.8843 47.1744 46.8867C50.5969 48.6297 54.2526 49.5133 58.038 49.5133C64.2201 49.5133 70.1225 47.1332 74.6579 42.8102C78.0882 39.5417 80.5005 35.3703 81.6313 30.7462C82.1271 28.7242 82.3766 26.7109 82.3766 24.756C82.3766 19.2006 80.5472 13.8688 77.1916 9.51975H82.3766C84.4353 9.51975 86.1208 11.2335 86.1208 13.3281V16.5849C86.1208 17.6512 86.9632 18.4899 87.9937 18.4899C89.0234 18.4899 89.8666 17.6513 89.8666 16.5849V13.3281C89.8674 9.12131 86.5163 5.71278 82.3788 5.71278L82.3827 5.71259ZM43.8285 9.61993L45.8118 12.6458L44.0974 19.6272L37.5112 26.3279C37.4692 25.7991 37.4475 25.2726 37.4475 24.7564C37.4467 18.9797 39.7501 13.569 43.8285 9.61981L43.8285 9.61993ZM47.1103 21.948C47.3512 21.7046 47.5207 21.3971 47.6031 21.0627L49.6455 12.7518C49.7737 12.2309 49.6789 11.6808 49.3867 11.2341L48.2637 9.52041L47.0156 7.61699L46.7693 7.24072C47.6397 6.65815 48.5443 6.15067 49.4767 5.71196C52.143 4.46065 55.0395 3.80853 58.0401 3.80853C61.0639 3.80853 63.9751 4.46541 66.6299 5.71196C67.7575 6.24078 68.8378 6.87789 69.862 7.61699C70.3189 7.94582 70.7658 8.29363 71.1987 8.66435L69.5123 9.52201L68.2541 10.1623L66.9959 9.52201L65.0064 8.51022C64.5207 8.26279 63.9557 8.24304 63.4521 8.45488C62.9819 8.65329 62.619 9.04298 62.4325 9.522C62.4201 9.55362 62.4022 9.57971 62.3921 9.61133L60.5518 15.2252L54.9588 19.017C54.4389 19.3703 54.1242 19.9655 54.1242 20.6026V22.68C54.1242 22.9757 54.1918 23.2681 54.3223 23.5314L56.3647 27.6868C56.8271 28.6274 57.9493 29.0069 58.8772 28.5381L61.755 27.075L65.6057 30.9902L63.3932 33.2406H58.0403C57.8398 33.2406 57.6393 33.2738 57.4473 33.3394L51.3195 35.4191C50.8485 35.5788 50.4592 35.921 50.2369 36.3732L47.2022 42.5467C42.9566 39.8701 39.8123 35.7234 38.3575 30.8518L47.1103 21.948ZM78.6377 24.7574C78.6377 25.2743 78.6167 25.7984 78.5739 26.3288L73.6631 21.3338C73.3118 20.9765 72.8354 20.7765 72.3396 20.7765L68.2542 20.7757C67.2206 20.7757 66.3813 21.6278 66.3813 22.6807V26.3928L63.45 23.4113C63.3676 23.3275 63.2775 23.2563 63.185 23.1899C63.1563 23.1694 63.1267 23.1536 63.0972 23.1354C63.028 23.0927 62.9581 23.054 62.8843 23.02C62.8516 23.005 62.8198 22.9915 62.7871 22.9789C62.7055 22.9473 62.6231 22.9235 62.5384 22.903C62.5136 22.8975 62.4903 22.8896 62.4662 22.8848C62.3535 22.8635 62.24 22.8508 62.125 22.8508H62.1242C61.9983 22.8516 61.8724 22.869 61.7465 22.8951C61.7178 22.9022 61.6883 22.9085 61.6587 22.9156C61.5328 22.9488 61.4077 22.9907 61.2888 23.0516L58.8789 24.2768L57.8718 22.2279V21.6193L63.1648 18.029C63.5114 17.7943 63.771 17.4488 63.9023 17.0465L65.2623 12.8957L67.4157 13.9913C67.9426 14.2585 68.562 14.2585 69.0912 13.9913L73.97 11.5108C76.9901 15.256 78.6375 19.9079 78.6375 24.7574H78.6377ZM77.7253 30.8502C76.928 33.5219 75.6139 35.9954 73.8613 38.1343L70.745 31.7948L70.1264 30.5372V24.5818H71.5633L77.7253 30.8502ZM53.2427 38.7794L58.3462 37.0475H64.1694C64.666 37.0475 65.1423 36.8459 65.4928 36.4887L67.7411 34.2026L69.8759 38.5462L71.061 40.9588C67.3797 44.0273 62.8062 45.7031 58.0408 45.7031C55.4585 45.7031 52.946 45.2162 50.5492 44.2526L53.2427 38.7794ZM86.1269 64.7501C86.1269 66.8496 84.4483 68.5602 82.3827 68.5602H7.48863C5.42295 68.5602 3.74443 66.8504 3.74443 64.7501V57.1323H86.1269V64.7501ZM50.553 76.1763H39.3186V72.3687H50.5522V76.1763H50.553ZM89.8711 24.2045C89.8711 25.2709 89.0279 26.108 87.9982 26.108C86.9685 26.108 86.1253 25.2693 86.1253 24.2045C86.1253 23.1572 86.9677 22.2995 87.9982 22.2995C89.0294 22.2995 89.8711 23.1572 89.8711 24.2045ZM41.1924 62.8449C41.1924 61.792 42.0302 60.9399 43.0654 60.9399H46.8096C47.8432 60.9399 48.6809 61.792 48.6809 62.8449C48.6809 63.8978 47.8432 64.7484 46.8096 64.7484H43.0654C42.0302 64.7492 41.1924 63.897 41.1924 62.8449ZM7.49062 24.759C7.49062 23.7085 8.32837 22.854 9.36354 22.854L26.2143 22.8516C27.2478 22.8516 28.0856 23.7037 28.0856 24.7566C28.0856 25.8071 27.2478 26.6601 26.2143 26.6601L9.36354 26.6624C8.32839 26.6632 7.49062 25.8119 7.49062 24.759ZM29.9598 15.2356C29.9598 16.2861 29.1221 17.1406 28.0869 17.1406L9.3641 17.143C8.3305 17.143 7.49118 16.2909 7.49118 15.238C7.49118 14.1874 8.32893 13.3329 9.3641 13.3329L28.0869 13.3306C29.1205 13.3306 29.9598 14.1827 29.9598 15.2356V15.2356ZM29.9598 32.3752C29.9598 33.4225 29.1166 34.2802 28.0869 34.2802H24.3427C23.3122 34.2802 22.4714 33.4225 22.4714 32.3752C22.4714 31.3278 23.3138 30.4701 24.3427 30.4701H28.0869C29.1159 30.4701 29.9598 31.3286 29.9598 32.3752ZM7.49062 32.3752C7.49062 31.3278 8.33305 30.4701 9.36354 30.4701C10.3933 30.4701 11.2349 31.3278 11.2349 32.3752C11.2349 33.4225 10.3925 34.2802 9.36354 34.2802C8.33227 34.2794 7.49062 33.4225 7.49062 32.3752ZM16.8529 30.4701C17.8826 30.4701 18.7243 31.3278 18.7243 32.3752C18.7243 33.4225 17.8818 34.2802 16.8529 34.2802C15.8224 34.2802 14.98 33.4225 14.98 32.3752C14.98 31.3286 15.8224 30.4701 16.8529 30.4701ZM33.7036 39.9929C33.7036 41.0403 32.8604 41.898 31.8307 41.898C30.8002 41.898 29.9594 41.0403 29.9594 39.9929C29.9594 38.9456 30.8018 38.0895 31.8307 38.0895C32.8604 38.0879 33.7036 38.9456 33.7036 39.9929ZM7.49022 39.9929C7.49022 38.9456 8.33265 38.0895 9.36314 38.0895H24.341C25.3707 38.0895 26.2139 38.9464 26.2139 39.9929C26.2139 41.0403 25.3707 41.898 24.341 41.898H9.36234C8.33185 41.898 7.4902 41.0403 7.4902 39.9929H7.49022ZM7.49022 47.6113C7.49022 46.56 8.32797 45.7079 9.36314 45.7079H31.327C32.3606 45.7079 33.1999 46.56 33.1999 47.6113C33.1999 48.6642 32.3622 49.5164 31.327 49.5164H9.36314C8.32877 49.5164 7.491 48.6643 7.491 47.6113H7.49022Z" fill="#000"/>
</svg>