<svg width="111" height="77" viewBox="0 0 111 77" fill="none" xmlns="http://www.w3.org/2000/svg">
<path d="M49.9839 17.7627C47.7505 17.0735 45.3816 16.9464 43.0877 17.3929L36.8016 17.6331C36.7364 16.4916 36.1049 15.4574 35.1186 14.8788L22.4358 6.781V6.78017C22.0198 6.51193 21.5139 6.42196 21.031 6.52926C20.5482 6.63738 20.128 6.9337 19.8656 7.35381L0.341963 38.6007C0.0827838 39.0192 0.0018975 39.5243 0.115809 40.003C0.230538 40.4826 0.531815 40.8953 0.951919 41.152L13.3947 48.7323C13.9782 49.0938 14.6501 49.2862 15.336 49.287C15.7338 49.2763 16.1275 49.2012 16.5014 49.065L19.3301 50.9138C18.4973 51.9728 18.0186 53.2662 17.9616 54.6116C17.917 56.363 18.5839 58.0576 19.8105 59.3081C20.7365 60.2672 21.9382 60.9143 23.2498 61.157C22.7298 63.0801 23.1152 65.1353 24.2955 66.7408C25.4758 68.3453 27.323 69.3249 29.3139 69.4027H29.5541C30.5297 69.3978 31.4904 69.1708 32.3646 68.7375C32.6303 69.8146 33.1652 70.8067 33.9171 71.6213C35.005 72.7941 36.4916 73.518 38.0854 73.6509C39.6793 73.7846 41.2657 73.3183 42.5335 72.3427C42.8257 73.315 43.3382 74.2072 44.0307 74.9492C45.2044 76.2014 46.8271 76.9368 48.5424 76.9962C50.2575 77.0548 51.9257 76.4325 53.1827 75.2637L55.1983 73.4149L58.6007 75.6335H58.5998C60.4974 76.8741 62.9059 77.0317 64.9487 76.0478C66.9916 75.0648 68.3707 73.0839 68.5837 70.8264C69.2721 71.0765 69.9968 71.2078 70.7288 71.2143C72.4564 71.2102 74.113 70.5235 75.3385 69.3052C76.5634 68.0869 77.2592 66.4345 77.2732 64.7069C79.2665 64.8547 81.2186 64.0846 82.5722 62.6154C83.9266 61.1454 84.5358 59.1372 84.2254 57.1628C86.3376 56.8252 88.1476 55.4683 89.0637 53.5352C89.9799 51.603 89.885 49.3431 88.8103 47.4934L94.7639 44.0549C95.0256 44.1597 95.2988 44.234 95.5769 44.2769H96.1134C96.9132 44.2769 97.6924 44.0169 98.3321 43.5374L110.257 34.6075V34.6066C111.069 34.0008 111.242 32.8552 110.645 32.0372L88.4589 1.66088C88.1675 1.25975 87.7276 0.993135 87.2373 0.920512C86.7471 0.847051 86.2485 0.974163 85.8523 1.27213L73.5203 10.5165C72.9599 10.9366 72.5306 11.5069 72.2822 12.1615C72.0329 12.8168 71.9752 13.5283 72.1155 14.2142L61.0223 14.6583C57.157 14.8555 53.3849 15.917 49.9844 17.7642L49.9839 17.7627ZM4.46373 39.0236L21.9726 10.9399L33.0658 18.0581L30.422 22.181L15.3349 45.5697L4.46373 39.0236ZM21.64 54.8134C21.6871 54.1052 22.0048 53.4432 22.5273 52.9645L23.4517 52.0954L26.8722 48.9151C27.3749 48.4463 28.0344 48.183 28.7211 48.1755H28.8136C29.5795 48.2044 30.3009 48.5445 30.8102 49.1181C31.8568 50.2365 31.799 51.9914 30.6806 53.0379L26.3728 56.9577C25.8239 57.4687 25.091 57.7353 24.3424 57.6965C23.5937 57.6585 22.8922 57.3184 22.3978 56.7547C21.8935 56.2149 21.6277 55.4952 21.6582 54.7573L21.64 54.8134ZM29.3681 65.9066C28.5996 65.8587 27.8849 65.4972 27.3896 64.9078C26.343 63.7894 26.4008 62.0346 27.5192 60.988L29.5158 59.1392L33.2135 55.6263L37.2629 51.9286C37.7639 51.4589 38.4242 51.1948 39.1117 51.189C39.9148 51.1965 40.6783 51.5382 41.219 52.1324C42.2656 53.25 42.2078 55.0048 41.0902 56.0514L37.6327 59.2868L33.935 62.6701L31.217 65.2032C30.6929 65.6043 30.0466 65.8131 29.3863 65.795L29.3681 65.9066ZM36.4681 69.2345C35.4216 68.1161 35.4793 66.3613 36.5969 65.3147L45.8784 56.6614V56.6622C46.3811 56.1934 47.0406 55.9301 47.7273 55.9227H47.8197C48.5865 55.9507 49.3079 56.2916 49.8163 56.8652C50.8629 57.9836 50.8052 59.7385 49.6876 60.785L45.1208 64.9079L44.2145 65.7581L40.5168 69.2337V69.2345C39.9753 69.7694 39.2391 70.0599 38.4781 70.0393C37.717 70.0178 36.9973 69.6868 36.4864 69.1231L36.4681 69.2345ZM46.5816 72.5806H46.5807C46.0632 72.0392 45.7875 71.3104 45.8148 70.5617C45.8428 69.8131 46.1722 69.1074 46.7293 68.6056L47.6356 67.7554L49.614 65.9066H49.6132C50.1159 65.4378 50.7753 65.1745 51.4621 65.167H51.5545C52.3205 65.1951 53.0419 65.536 53.5511 66.1096C54.5977 67.228 54.5399 68.9829 53.4215 70.0294L50.5929 72.6732C50.0407 73.1849 49.3053 73.4524 48.5533 73.4136C47.8014 73.3756 47.0965 73.0347 46.5997 72.4702L46.5816 72.5806ZM85.5556 52.428C84.7476 53.643 83.1604 54.0631 81.8579 53.4077C81.6425 53.2245 81.4139 53.0578 81.1737 52.9084L71.7998 46.8625V46.8633C71.6174 46.7378 71.4185 46.638 71.208 46.567C70.4065 46.3384 69.5515 46.6735 69.119 47.3866C68.6873 48.0997 68.7855 49.0134 69.3591 49.6177C69.6612 49.8174 69.9839 49.985 70.3207 50.1171L79.565 56.2365H79.6757C80.6001 57.1832 80.7387 58.6466 80.0091 59.7493C79.1309 60.999 77.4389 61.3622 76.1265 60.5813L74.9066 59.8046L74.9057 59.8055C74.6911 59.6107 74.4625 59.4316 74.2215 59.269L71.7998 57.6974L66.2532 54.0922C65.5434 53.6523 64.6264 53.7431 64.0164 54.3143C63.9438 54.3646 63.8761 54.4199 63.8125 54.4802C63.7638 54.5512 63.7209 54.6254 63.6829 54.7022C63.6012 54.8178 63.5335 54.9416 63.4799 55.072C63.4683 55.1892 63.4683 55.3064 63.4799 55.4236C63.4106 55.6085 63.4106 55.8115 63.4799 55.9964C63.4675 56.1194 63.4675 56.2432 63.4799 56.3662C63.5286 56.4504 63.5847 56.5313 63.6466 56.6064C63.7077 56.7252 63.782 56.8366 63.8678 56.9398C64.1385 57.199 64.4357 57.4285 64.7559 57.6232L72.6689 62.7447C73.6024 63.6774 73.7493 65.1392 73.0197 66.2394C72.1522 67.5138 70.4387 67.8877 69.1189 67.0895L66.7153 65.518H66.5123C66.2209 65.244 65.9048 64.9963 65.5689 64.7784L61.3909 62.0975C60.979 61.8012 60.464 61.6864 59.9654 61.7814C59.4669 61.8763 59.0294 62.1709 58.7546 62.5977C58.4806 63.0244 58.3939 63.5452 58.5144 64.038C58.6349 64.5307 58.9535 64.9525 59.3943 65.2034L63.5723 67.8844C64.8814 68.7287 65.2619 70.4728 64.4224 71.786C63.5384 73.0365 61.8465 73.4054 60.5216 72.6362L57.4529 70.6577C57.9779 69.4782 58.1421 68.1692 57.9251 66.8955C57.708 65.6228 57.1187 64.4417 56.2322 63.5031C55.4819 62.7058 54.5402 62.114 53.4961 61.783C53.9979 60.9015 54.2827 59.9127 54.3281 58.8992C54.4156 56.7317 53.4169 54.6624 51.6653 53.3832C49.9146 52.1031 47.6398 51.7795 45.6012 52.5207C45.3495 51.3569 44.7874 50.2839 43.9744 49.4148C42.8304 48.1982 41.2605 47.4702 39.5933 47.3844C37.9252 47.2977 36.2892 47.8598 35.0257 48.9526C34.7343 47.9943 34.2284 47.1161 33.5466 46.3824C32.3753 45.1261 30.7526 44.3874 29.0358 44.328C27.3198 44.2694 25.6501 44.895 24.3946 46.0679L22.0282 48.2684L19.1996 46.4195L32.6963 25.435L35.3029 21.3856L43.3274 21.0901H43.6419L44.3261 20.9977L37.4671 24.9547H37.4663C35.1545 26.2951 33.7339 28.768 33.7388 31.4405C33.7446 34.113 35.175 36.5793 37.4919 37.9116C39.8096 39.2429 42.6613 39.2371 44.9731 37.8967L56.3256 30.7966H56.3248C57.1584 30.2725 58.1373 30.029 59.1188 30.1025C60.101 30.1751 61.0329 30.5614 61.779 31.2035L70.5241 38.599C71.7258 39.6159 72.8722 40.5403 74.0551 41.4095C75.5895 42.556 77.161 43.6463 78.7144 44.6269L84.6126 48.3247H84.7422V48.3238C85.3984 48.7291 85.8598 49.3869 86.0166 50.1422C86.1743 50.8974 86.0141 51.684 85.5742 52.3179L85.5556 52.428ZM86.6097 5.50482L106.577 32.7561L96.1124 40.5957L91.86 34.9565L75.8672 13.4907L86.6097 5.50482ZM74.389 17.9666L84.3175 31.2231L91.9902 41.4842L85.9633 44.9598L80.6925 41.428C79.2134 40.4854 77.7161 39.4685 76.2552 38.3772C75.1459 37.5453 74.0547 36.6761 72.909 35.7145L64.164 28.319C62.8186 27.1676 61.1399 26.4767 59.3734 26.3463C57.6071 26.2167 55.8458 26.6558 54.346 27.5984L43.0497 34.6613C42.1864 35.1516 41.1646 35.2787 40.2071 35.0154C39.2505 34.7521 38.4375 34.119 37.9473 33.2557C37.457 32.3932 37.3291 31.3705 37.5924 30.4131C37.8565 29.4565 38.4888 28.6435 39.3521 28.1532L51.1105 21.3678C54.2172 19.5726 57.7127 18.5573 61.2982 18.4096L74.389 17.9666Z" fill="#6BB8CB"/>
<path d="M16.8331 36.9719C16.8331 39.0238 15.1691 40.6878 13.1164 40.6878C11.0645 40.6878 9.40045 39.0238 9.40045 36.9719C9.40045 34.9192 11.0644 33.2551 13.1164 33.2551C15.1691 33.2551 16.8331 34.9191 16.8331 36.9719Z" fill="#6BB8CB"/>
</svg>
