<svg width="85" height="85" viewBox="0 0 85 85" fill="none" xmlns="http://www.w3.org/2000/svg">
<path fill-rule="evenodd" clip-rule="evenodd" d="M35.7733 15.5C33.3424 15.5 31.0104 16.4662 29.2905 18.1837C27.5729 19.9036 26.6068 22.2356 26.6068 24.6665V28.4028C26.6068 30.8337 27.573 33.1644 29.2905 34.8837C31.0104 36.6037 33.3424 37.5693 35.7733 37.5693C38.2047 37.5693 40.5366 36.6037 42.256 34.8837C43.9742 33.1644 44.9403 30.8337 44.9403 28.4028V24.6665C44.9403 22.2356 43.9742 19.9036 42.256 18.1837C40.5367 16.4661 38.2047 15.5 35.7733 15.5ZM35.7733 19.1665C34.3271 19.1665 32.9373 19.7367 31.9085 20.7544L31.8852 20.7783C30.8527 21.8083 30.2732 23.2073 30.2732 24.6664V28.4027C30.2732 29.8606 30.8527 31.259 31.8852 32.2914C32.9152 33.3214 34.3141 33.9027 35.7732 33.9027C37.2329 33.9027 38.6318 33.3214 39.6619 32.2914C40.6943 31.2589 41.2732 29.8605 41.2732 28.4027V24.6664C41.2732 23.2072 40.6943 21.8082 39.6619 20.7783C38.6318 19.7458 37.2329 19.1664 35.7732 19.1664L35.7733 19.1665Z" fill="#000"/>
<path fill-rule="evenodd" clip-rule="evenodd" d="M35.7732 8.1665C20.5954 8.1665 8.27319 20.4887 8.27319 35.6665C8.27319 50.8449 20.5954 63.1665 35.7732 63.1665C50.9516 63.1665 63.2732 50.8449 63.2732 35.6665C63.2732 20.4887 50.9516 8.1665 35.7732 8.1665ZM43.8654 44.8342L39.6618 49.0378C39.0769 49.6228 38.3728 50.0629 37.6067 50.3342V59.4314C40.1861 59.235 42.6537 58.626 44.9403 57.6709V50.3342C44.9403 49.322 45.7616 48.5007 46.7732 48.5007C47.7854 48.5007 48.6067 49.322 48.6067 50.3342V55.7495C49.9228 54.9061 51.151 53.9363 52.2732 52.8584V50.3344C52.2732 47.2965 49.8111 44.8344 46.7732 44.8344L43.8654 44.8342ZM27.6813 44.8342H24.7735C21.7356 44.8342 19.2735 47.2963 19.2735 50.3342V52.8583C20.3974 53.9362 21.6239 54.906 22.9406 55.7494V50.3341C22.9406 49.3218 23.7619 48.5005 24.7735 48.5005C25.7857 48.5005 26.607 49.3218 26.607 50.3341V57.6708C28.893 58.6259 31.3587 59.2348 33.9406 59.4312V50.3341C33.1739 50.0627 32.4698 49.6226 31.8855 49.0376L27.6813 44.8342ZM55.7816 48.6179C58.2013 44.8889 59.6077 40.4416 59.6077 35.6671C59.6077 22.5132 48.9287 11.8348 35.7738 11.8348C22.6199 11.8348 11.9415 22.5138 11.9415 35.6671C11.9415 40.4416 13.3472 44.8889 15.7677 48.6179C16.5706 44.3757 20.2978 41.1671 24.7745 41.1671H46.7745C51.2518 41.1671 54.979 44.3757 55.7819 48.6179H55.7816ZM38.6813 44.8342H32.8657L34.4777 46.4456C34.8202 46.7881 35.288 46.9827 35.7735 46.9827C36.2597 46.9827 36.7268 46.7881 37.07 46.4456L38.6813 44.8342Z" fill="#000"/>
<path fill-rule="evenodd" clip-rule="evenodd" d="M59.0697 61.5554L60.6865 63.1723C59.7922 64.1771 59.2913 65.4809 59.2913 66.8338C59.2913 68.2929 59.8707 69.692 60.9032 70.7219L72.9775 82.7967C74.2935 84.1128 76.0792 84.8537 77.9404 84.8537C79.8009 84.8537 81.5865 84.1128 82.9032 82.7967C84.2193 81.48 84.9602 79.6944 84.9602 77.8338C84.9602 75.9726 84.2193 74.187 82.9032 72.871L70.8284 60.7967C69.7984 59.7643 68.3994 59.1848 66.9404 59.1848C65.5875 59.1848 64.2837 59.6857 63.2788 60.58L61.6619 58.9632C67.2227 52.7886 70.6068 44.6207 70.6068 35.6667C70.6068 16.4419 54.9981 0.834473 35.773 0.834473C16.5481 0.834473 0.940674 16.4432 0.940674 35.6667C0.940674 54.8916 16.5494 70.5006 35.773 70.5006C44.727 70.5006 52.8952 67.1165 59.0694 61.5557L59.0697 61.5554ZM80.3107 80.2036C79.6821 80.8327 78.8295 81.1863 77.9407 81.1863C77.0512 81.1863 76.1986 80.8327 75.57 80.2036L63.4958 68.1293C63.1526 67.7868 62.9587 67.3191 62.9587 66.8335C62.9587 66.3474 63.1526 65.8802 63.4958 65.5371L65.6442 63.3886C65.9874 63.0455 66.4545 62.8515 66.9407 62.8515C67.4262 62.8515 67.8939 63.0455 68.2365 63.3886L80.3107 75.4629C80.9399 76.0914 81.2935 76.9441 81.2935 77.8335C81.2935 78.7223 80.9399 79.575 80.3107 80.2035L80.3107 80.2036ZM35.7733 4.5C52.9757 4.5 66.941 18.4642 66.941 35.6661C66.941 52.8681 52.9762 66.8338 35.7733 66.8338C18.5704 66.8338 4.60712 52.869 4.60712 35.6661C4.60712 18.4632 18.5713 4.5 35.7733 4.5Z" fill="#000"/>
</svg>
