<svg width="104" height="85" viewBox="0 0 104 85" fill="none" xmlns="http://www.w3.org/2000/svg">
<path fill-rule="evenodd" clip-rule="evenodd" d="M82.4135 20.7895C80.8236 17.3068 78.3434 14.322 75.1808 12.0968C71.5327 9.53321 67.2433 8.1769 62.7708 8.1769C59.9931 8.1769 57.3118 8.68994 54.7733 9.70691C50.792 3.69551 44.0518 0.0328369 36.7632 0.0328369C24.8556 0.0328369 15.1683 9.7205 15.1683 21.6296V21.8254C11.168 23.1164 7.57524 25.5858 4.92654 28.8926C1.87412 32.7016 0.192383 37.4936 0.192383 42.3848C0.192383 50.9955 5.29685 58.7761 13.1975 62.2038C14.2243 62.6493 15.4166 62.178 15.8606 61.1535C16.3045 60.1267 15.8332 58.9359 14.8102 58.4904C8.38887 55.7036 4.2399 49.3817 4.2399 42.3845C4.2399 34.2086 9.78986 27.1855 17.7336 25.3072C18.7096 25.075 19.3691 24.1635 19.2841 23.1617C19.2386 22.6441 19.2173 22.128 19.2173 21.6287C19.2173 11.9523 27.0875 4.08 36.766 4.08C43.2009 4.08 49.1138 7.59696 52.1919 13.2555C52.7156 14.2163 53.9063 14.5897 54.8824 14.0957C57.3444 12.8548 60.0006 12.2234 62.7752 12.2234C70.0283 12.2234 76.6257 16.7808 79.1924 23.5603C79.5066 24.3868 80.3254 24.9181 81.1997 24.8634C81.5557 24.8429 81.8896 24.8331 82.219 24.8331C91.8907 24.8331 99.7661 32.7055 99.7661 42.3841C99.7661 49.9027 94.9833 56.5813 87.8729 59.0023C86.8142 59.3628 86.2488 60.5118 86.61 61.5706C86.8954 62.413 87.6824 62.9427 88.524 62.9427C88.7403 62.9427 88.9612 62.9085 89.176 62.8364C97.9332 59.8569 103.814 51.6392 103.814 42.3859C103.809 30.5444 94.235 20.8999 82.4137 20.7891L82.4135 20.7895ZM78.7586 70.686L74.0715 67.9796C73.1038 67.421 71.8667 67.7527 71.3074 68.7211C70.7488 69.688 71.0804 70.9266 72.0488 71.4852L76.736 74.1908C77.0555 74.3752 77.4046 74.4617 77.7461 74.4617C78.4451 74.4617 79.1251 74.099 79.5007 73.4493C80.0586 72.484 79.7262 71.2446 78.7585 70.686H78.7586ZM68.6876 61.9567C68.6876 62.7141 68.2884 63.3782 67.6904 63.7516V60.1612C68.2892 60.5369 68.6876 61.2002 68.6876 61.9568V61.9567ZM63.6438 47.2829V76.6317C63.6438 77.4893 62.9478 78.1852 62.091 78.1852C61.2334 78.1852 60.5375 77.4893 60.5375 76.6317L60.5367 47.2829C60.5367 46.4253 61.2326 45.7294 62.0902 45.7294C62.9478 45.7286 63.6438 46.4246 63.6438 47.2829ZM36.0494 80.3018L34.9451 71.6576H33.4538L34.6233 80.6107L36.0494 80.3018ZM29.7798 67.6103C26.6628 67.6103 24.1288 65.0746 24.1288 61.9569C24.1288 58.84 26.6628 56.3052 29.7798 56.3052H34.7045V67.6103H29.7798ZM38.7511 67.1003V56.8152C45.5769 55.8597 51.7053 53.8014 56.488 50.8774V73.0376C51.7053 70.1142 45.5777 68.056 38.7511 67.1005V67.1003ZM67.69 68.0209V76.6316C67.69 79.7219 65.1786 82.234 62.0899 82.234C59.4958 82.234 57.3071 80.4612 56.6734 78.0637C52.3779 74.7647 46.0483 72.3299 38.9722 71.2271L40.1235 80.2494C40.358 82.0867 39.1695 83.7685 37.3594 84.1617L34.9468 84.6839C34.6918 84.7385 34.4368 84.7666 34.184 84.7666C33.4631 84.7666 32.7641 84.5442 32.1561 84.1169C31.3357 83.5401 30.8143 82.6742 30.6815 81.68L29.3701 71.6455C24.2108 71.43 20.0801 67.1686 20.0801 61.9579C20.0801 56.6098 24.4311 52.258 29.7777 52.258H36.7265C37.2668 52.258 37.7541 52.4697 38.1184 52.8143C45.5391 51.7806 52.2056 49.2829 56.6734 45.8518C57.3056 43.4536 59.4945 41.6815 62.0899 41.6815C65.1781 41.6815 67.69 44.1928 67.69 47.2839V55.8947C70.5573 56.4229 72.7354 58.9411 72.7354 61.9577C72.7362 64.9752 70.5588 67.4904 67.69 68.0208L67.69 68.0209ZM73.061 56.2059C72.3628 56.2059 71.6843 55.8432 71.3064 55.1935C70.7478 54.2267 71.0794 52.988 72.0478 52.4294L76.735 49.7238C77.7041 49.1652 78.9405 49.4969 79.4991 50.4638C80.0577 51.4314 79.726 52.6707 78.7576 53.2292L74.0705 55.9349C73.754 56.1185 73.4049 56.2058 73.0611 56.2058L73.061 56.2059ZM83.6093 61.9572C83.6093 63.0743 82.7047 63.9813 81.5853 63.9813H76.455C75.3378 63.9813 74.4309 63.0743 74.4309 61.9572C74.4309 60.8408 75.3378 59.9331 76.455 59.9331H81.5853C82.7047 59.9331 83.6093 60.8416 83.6093 61.9572Z" fill="#6BB8CB"/>
</svg>
