<svg width="80" height="79" viewBox="0 0 80 79" fill="none" xmlns="http://www.w3.org/2000/svg">
<path d="M57.6401 26.5412L47.5933 25.0965L43.0796 16.0246C42.8169 15.4962 42.2743 15.1622 41.6809 15.1622C41.0875 15.1622 40.5449 15.4962 40.2823 16.0246L35.7997 25.0965L25.7529 26.5412C25.1725 26.6247 24.6872 27.0228 24.495 27.5728C24.3078 28.1343 24.4616 28.7519 24.8903 29.1623L32.1702 36.1904L30.4545 46.118H30.4538C30.3449 46.7011 30.5887 47.2936 31.0776 47.6348C31.5572 47.9832 32.1941 48.0314 32.7215 47.7586L41.6967 43.063L50.6821 47.7586C50.9077 47.8723 51.1566 47.9328 51.4098 47.9343C51.8704 47.9314 52.3064 47.7284 52.6024 47.3792C52.8984 47.0294 53.0253 46.5687 52.9492 46.118L51.2335 36.1904L58.5133 29.1623C58.942 28.7519 59.0951 28.1343 58.9087 27.5728C58.7142 27.0199 58.2246 26.6211 57.6399 26.5412H57.6401ZM48.4567 34.6008C48.0933 34.9557 47.9272 35.4639 48.0091 35.9628L49.32 43.5789L42.4044 39.9666L42.4037 39.9673C42.178 39.8535 41.9292 39.7931 41.676 39.7916C41.4257 39.7923 41.1798 39.8521 40.9586 39.9673L34.0429 43.5796L35.364 35.9325L35.3632 35.9318C35.438 35.4445 35.2762 34.9513 34.9265 34.6008L29.3311 29.1931L37.0585 28.0679C37.5678 27.9988 38.0089 27.6813 38.2337 27.2221L41.6869 20.2767L45.1596 27.1911C45.3845 27.6504 45.8255 27.9679 46.3348 28.037L54.0622 29.1621L48.4567 34.6008Z" fill="#fff"/>
<path d="M70.8685 53.3714C68.6951 53.9905 65.4813 54.9501 62.2153 55.9514C62.2393 55.8585 62.2741 55.7685 62.3198 55.6829L62.684 55.0739V55.0746C62.8312 54.827 63.0699 54.6456 63.3492 54.5685C65.7722 53.9185 69.5896 53.2577 69.683 53.2267C70.6536 52.9999 71.4843 52.378 71.971 51.5141C72.4389 50.6402 72.5216 49.613 72.1995 48.6758L69.9637 42.0918C69.9115 41.9313 69.9557 41.7549 70.0776 41.6376L75.1738 36.88C75.9 36.1983 76.3033 35.2452 76.2852 34.254C76.267 33.2627 75.8303 32.3239 75.0802 31.669L69.8802 27.0762C69.754 26.9661 69.7054 26.7919 69.7554 26.6328L71.7628 19.9762C72.0508 19.026 71.9224 17.9994 71.4088 17.1485C70.8937 16.3056 70.0508 15.7124 69.0794 15.5073L62.2261 14.1345V14.1352C62.0586 14.1042 61.9244 13.979 61.883 13.8148L60.2711 7.05525C60.0418 6.09062 59.4143 5.26638 58.5409 4.78484C57.6682 4.30397 56.6308 4.21039 55.684 4.52714L49.0078 6.73562C48.846 6.78673 48.6683 6.74282 48.55 6.62188L43.7556 1.57558C43.0614 0.862915 42.1023 0.463383 41.1034 0.471307C40.106 0.487864 39.1614 0.92266 38.5034 1.66845L33.8751 6.88023H33.8758C33.7641 7.00477 33.5892 7.05372 33.4282 7.00405L26.72 5.0121H26.7207C25.7631 4.72487 24.728 4.85301 23.8696 5.36412C23.0122 5.8745 22.4122 6.7218 22.2171 7.69497L20.8337 14.4955C20.8025 14.6618 20.677 14.7949 20.5116 14.8367L13.6996 16.4262V16.4255C12.7275 16.658 11.8983 17.2828 11.4116 18.1488C10.9233 19.0155 10.8283 20.0471 11.1519 20.9872L13.3877 27.5712C13.4406 27.7288 13.3957 27.9023 13.2731 28.0153L8.17687 32.783H8.17759C7.46883 33.4633 7.07636 34.4048 7.09378 35.3831C7.11192 36.3614 7.53775 37.2886 8.27117 37.943L13.4712 42.5358V42.535C13.6112 42.6776 13.6518 42.8885 13.5749 43.0721L12.296 48.7892C8.58594 49.4478 4.99441 50.6442 1.63558 52.3396C0.910868 52.7643 0.656233 53.6829 1.06102 54.4158C1.46509 55.1486 2.38206 55.4308 3.13359 55.0536C3.21701 55.0536 11.4538 50.5955 20.262 51.4932C23.7761 51.8689 27.1277 53.1618 29.9758 55.2393C31.6218 56.4645 33.5166 57.3205 35.529 57.7473C45.1904 59.192 48.6226 60.1826 48.6226 62.9073C48.6422 63.2607 48.4775 63.5998 48.1859 63.8049C45.7941 65.6111 36.5897 64.1044 30.8179 62.4631C29.988 62.227 29.1218 62.7028 28.8839 63.5264C28.6452 64.3499 29.1247 65.2094 29.9546 65.4455C34.4727 66.7614 39.1345 67.5274 43.839 67.7268C46.3664 67.7268 48.6436 67.3453 50.0794 66.2719L50.0786 66.2712C51.1625 65.488 51.7878 64.226 51.753 62.8966V62.4632C55.2373 61.4309 66.531 57.8603 71.7618 56.3847C74.393 55.631 75.7656 56.23 76.0572 56.808C76.3481 57.3861 75.9948 58.2629 74.7362 59.1713C70.306 62.3703 45.033 75.2703 40.0522 75.2913H39.9376C26.5843 75.2913 3.10113 68.4599 2.87084 68.3979L2.87229 68.3972C2.46749 68.2482 2.01843 68.2727 1.63178 68.4642C1.24584 68.6564 0.957112 68.9983 0.834504 69.4093C0.711903 69.8204 0.766312 70.2631 0.984671 70.6331C1.20376 71.0024 1.5672 71.2652 1.98868 71.3595C2.96658 71.6481 26.1371 78.3876 39.9375 78.3876H40.0623C46.4165 78.3876 72.7499 64.4242 76.5663 61.6795C78.9269 59.9662 79.8525 57.4689 78.8543 55.4871C77.9185 53.5989 75.3185 52.1432 70.8671 53.3715L70.8685 53.3714ZM35.9969 54.6412C34.4205 54.2655 32.9421 53.5621 31.6601 52.5767C28.3942 50.2595 24.5703 48.8355 20.5739 48.449C18.9163 48.3051 17.25 48.3051 15.5923 48.449L16.6326 44.0009C16.8307 43.3574 16.8379 42.6706 16.6537 42.0228C16.4687 41.3749 16.1009 40.7933 15.5923 40.3477L10.3923 35.7549V35.7556C10.2995 35.675 10.2465 35.5577 10.2465 35.4353C10.2422 35.3144 10.2915 35.197 10.3822 35.1157L15.4784 30.3582H15.4776C15.9717 29.8946 16.3221 29.3 16.486 28.6456C16.65 27.9905 16.6217 27.303 16.4033 26.6638L14.1675 20.0798V20.0791C14.1167 19.9711 14.1167 19.8466 14.1675 19.7386C14.2248 19.6292 14.3271 19.55 14.4482 19.5219L21.2398 17.8504C21.9014 17.6934 22.5043 17.3515 22.9758 16.8649C23.4481 16.3782 23.7694 15.7671 23.9022 15.1048L25.2856 8.30428H25.2849C25.3081 8.1819 25.3843 8.07679 25.4931 8.01489C25.6019 7.96594 25.7274 7.96594 25.8363 8.01489L32.5335 10.0068C33.1842 10.2041 33.8777 10.212 34.5329 10.0292C35.1872 9.8463 35.7748 9.47989 36.2261 8.97526L40.8545 3.76347H40.8537C40.935 3.67133 41.0532 3.61878 41.1766 3.61878C41.2963 3.62454 41.4109 3.67205 41.4987 3.75339L46.283 8.79969C46.7509 9.28919 47.3494 9.63547 48.0096 9.79815C48.669 9.96084 49.3618 9.93277 50.006 9.71825L56.5996 7.4578C56.7121 7.40741 56.8412 7.40741 56.9529 7.4578C57.0603 7.51611 57.1364 7.61833 57.1611 7.73638L58.7731 14.496C58.9327 15.1503 59.2765 15.7464 59.7647 16.2143C60.253 16.6822 60.8645 17.0025 61.529 17.1379L68.3932 18.5107C68.5158 18.5337 68.6225 18.6093 68.6841 18.7173C68.7276 18.8267 68.7276 18.9483 68.6841 19.0578L66.6667 25.7035C66.4708 26.3492 66.4643 27.0367 66.6486 27.686C66.8328 28.3354 67.1999 28.9184 67.707 29.3676L72.907 33.9604V33.9597C72.9977 34.0418 73.0492 34.1584 73.0492 34.28C73.0492 34.4017 72.9977 34.5176 72.907 34.5997L67.8108 39.3572C67.3291 39.8352 66.9968 40.4406 66.8532 41.1014C66.7096 41.7622 66.7604 42.4497 66.9998 43.0825L69.2356 49.6563C69.282 49.7686 69.282 49.8946 69.2356 50.0076C69.1862 50.0875 69.1188 50.1545 69.0382 50.2034C68.8823 50.2034 65.0861 50.8952 62.528 51.5863C61.466 51.8634 60.557 52.5458 60.0006 53.4853L59.6365 54.0943C59.1671 54.8732 58.9625 55.781 59.054 56.6845V56.9012L50.6301 59.5121C48.4045 56.5088 42.7575 55.6523 35.9972 54.6414L35.9969 54.6412Z" fill="#fff"/>
</svg>
