<svg width="85" height="85" viewBox="0 0 85 85" fill="none" xmlns="http://www.w3.org/2000/svg">
<path d="M60.7356 35.5726H22.9578C21.5977 35.5726 20.2931 35.0319 19.3314 34.0702C18.3691 33.108 17.829 31.8032 17.829 30.4432V5.4121C17.829 4.05203 18.3691 2.74736 19.3314 1.78505C20.293 0.823387 21.5978 0.282654 22.9578 0.282654H60.7356C62.0963 0.282654 63.401 0.823403 64.3627 1.78505C65.325 2.74731 65.8651 4.05209 65.8651 5.4121V30.4432C65.8651 31.8032 65.325 33.1079 64.3627 34.0702C63.401 35.0319 62.0963 35.5726 60.7356 35.5726ZM22.9578 2.8477C22.2778 2.8477 21.6257 3.11777 21.1445 3.5989C20.6634 4.07942 20.3933 4.73208 20.3933 5.41219V30.4433C20.3933 31.1233 20.6634 31.776 21.1445 32.2566C21.6256 32.7377 22.2777 33.0078 22.9578 33.0078H60.7356C61.4157 33.0078 62.0683 32.7377 62.5494 32.2566C63.0299 31.776 63.3006 31.1234 63.3006 30.4433V5.41219C63.3006 4.73216 63.0299 4.0795 62.5494 3.5989C62.0683 3.11777 61.4156 2.8477 60.7356 2.8477H22.9578Z" fill="#fff"/>
<path d="M18.7769 84.9185H5.31182C3.95175 84.9185 2.64708 84.3777 1.68477 83.4161C0.723106 82.4538 0.182373 81.1491 0.182373 79.789V66.324C0.182373 64.9639 0.723122 63.6592 1.68477 62.6969C2.64703 61.7352 3.95181 61.1945 5.31182 61.1945H18.7769C20.137 61.1945 21.4416 61.7353 22.404 62.6969C23.3656 63.6592 23.9063 64.964 23.9063 66.324V79.789C23.9063 81.1491 23.3656 82.4538 22.404 83.4161C21.4417 84.3778 20.1369 84.9185 18.7769 84.9185ZM5.31182 63.76C4.63178 63.76 3.97912 64.0301 3.49853 64.5112C3.0174 64.9924 2.74733 65.6444 2.74733 66.3245V79.7896C2.74733 80.4696 3.0174 81.1223 3.49853 81.6029C3.97904 82.084 4.63171 82.3541 5.31182 82.3541H18.7769C19.4569 82.3541 20.109 82.084 20.5902 81.6029C21.0713 81.1224 21.3414 80.4697 21.3414 79.7896V66.3245C21.3414 65.6445 21.0713 64.9924 20.5902 64.5112C20.1091 64.0301 19.457 63.76 18.7769 63.76H5.31182Z" fill="#fff"/>
<path d="M49.2315 84.9185H35.767C34.4063 84.9185 33.1017 84.3777 32.14 83.4161C31.1777 82.4538 30.6376 81.1491 30.6376 79.789V66.324C30.6376 64.9639 31.1777 63.6592 32.14 62.6969C33.1016 61.7352 34.4064 61.1945 35.767 61.1945H49.2315C50.5922 61.1945 51.8968 61.7353 52.8585 62.6969C53.8208 63.6592 54.3609 64.964 54.3609 66.324V79.789C54.3609 81.1491 53.8208 82.4538 52.8585 83.4161C51.8969 84.3778 50.5921 84.9185 49.2315 84.9185ZM35.767 63.76C35.0864 63.76 34.4343 64.0301 33.9533 64.5112C33.4727 64.9924 33.2021 65.6444 33.2021 66.3245V79.7896C33.2021 80.4696 33.4727 81.1223 33.9533 81.6029C34.4344 82.084 35.0864 82.3541 35.767 82.3541H49.2315C49.9121 82.3541 50.5642 82.084 51.0452 81.6029C51.5258 81.1224 51.7964 80.4697 51.7964 79.7896V66.3245C51.7964 65.6445 51.5258 64.9924 51.0452 64.5112C50.5641 64.0301 49.9121 63.76 49.2315 63.76H35.767Z" fill="#fff"/>
<path d="M79.6877 84.9185H66.2226C64.8625 84.9185 63.5578 84.3777 62.5955 83.4161C61.6339 82.4538 61.0931 81.1491 61.0931 79.789V66.324C61.0931 64.9639 61.6339 63.6592 62.5955 62.6969C63.5578 61.7352 64.8626 61.1945 66.2226 61.1945H79.6877C81.0477 61.1945 82.3524 61.7353 83.3147 62.6969C84.2764 63.6592 84.8171 64.964 84.8171 66.324V79.789C84.8171 81.1491 84.2764 82.4538 83.3147 83.4161C82.3524 84.3778 81.0477 84.9185 79.6877 84.9185ZM66.2226 63.76C65.5425 63.76 64.8905 64.0301 64.4093 64.5112C63.9282 64.9924 63.6581 65.6444 63.6581 66.3245V79.7896C63.6581 80.4696 63.9282 81.1223 64.4093 81.6029C64.8904 82.084 65.5425 82.3541 66.2226 82.3541H79.6877C80.3677 82.3541 81.0204 82.084 81.501 81.6029C81.9821 81.1224 82.2522 80.4697 82.2522 79.7896V66.3245C82.2522 65.6445 81.9821 64.9924 81.501 64.5112C81.0204 64.0301 80.3678 63.76 79.6877 63.76H66.2226Z" fill="#fff"/>
<path d="M72.9561 63.7585C72.2475 63.7585 71.6733 63.1843 71.6733 62.4763V52.4224C71.6733 52.0824 71.5383 51.7564 71.298 51.5155C71.0571 51.2752 70.7311 51.1402 70.3911 51.1402H14.6096C13.9016 51.1402 13.3274 51.7144 13.3274 52.4224V62.4763C13.3274 63.1843 12.7532 63.7585 12.0445 63.7585C11.3365 63.7585 10.7623 63.1843 10.7623 62.4763V52.4224C10.7623 51.4024 11.168 50.4237 11.8894 49.7022C12.6108 48.9808 13.5889 48.5751 14.6096 48.5751H70.3911C71.4118 48.5751 72.3899 48.9808 73.1113 49.7022C73.8327 50.4236 74.2384 51.4023 74.2384 52.4224V62.4763C74.2384 62.8163 74.1034 63.1423 73.8625 63.3826C73.6222 63.6234 73.2962 63.7585 72.9562 63.7585H72.9561Z" fill="#fff"/>
<path d="M41.8459 63.7584C41.1373 63.7584 40.5637 63.1842 40.5637 62.4762V34.2639C40.5637 33.5559 41.1373 32.9817 41.8459 32.9817C42.5539 32.9817 43.1281 33.5559 43.1281 34.2639V62.4762C43.1281 62.8162 42.9931 63.1423 42.7528 63.3825C42.512 63.6234 42.1859 63.7584 41.8459 63.7584Z" fill="#fff"/>
<path d="M58.1711 22.5315H25.5224C24.8144 22.5315 24.2402 21.9573 24.2402 21.2493C24.2402 20.5413 24.8144 19.9671 25.5224 19.9671H58.1711C58.8791 19.9671 59.4533 20.5413 59.4533 21.2493C59.4533 21.9573 58.8791 22.5315 58.1711 22.5315Z" fill="#fff"/>
<path d="M58.1711 15.8888H25.5224C24.8144 15.8888 24.2402 15.3152 24.2402 14.6066C24.2402 13.8985 24.8144 13.3243 25.5224 13.3243H58.1711C58.8791 13.3243 59.4533 13.8985 59.4533 14.6066C59.4533 15.3152 58.8791 15.8888 58.1711 15.8888Z" fill="#fff"/>
<path d="M50.9631 29.1618H32.7274C32.0194 29.1618 31.4452 28.5876 31.4452 27.879C31.4452 27.171 32.0194 26.5968 32.7274 26.5968H50.9631C51.6717 26.5968 52.2459 27.171 52.2459 27.879C52.2459 28.5876 51.6717 29.1618 50.9631 29.1618Z" fill="#fff"/>
<path d="M50.9631 9.25894H32.7274C32.0194 9.25894 31.4452 8.68475 31.4452 7.97673C31.4452 7.26811 32.0194 6.69391 32.7274 6.69391H50.9631C51.6717 6.69391 52.2459 7.26811 52.2459 7.97673C52.2459 8.68475 51.6717 9.25894 50.9631 9.25894Z" fill="#fff"/>
</svg>
