<svg width="71" height="74" viewBox="0 0 71 74" fill="none" xmlns="http://www.w3.org/2000/svg">
<path d="M48.5172 31.3257C51.1322 31.3284 53.5992 30.115 55.1923 28.0419C56.786 25.9693 57.325 23.2734 56.6507 20.7467C55.9757 18.2209 54.165 16.1523 51.7503 15.1499C49.3355 14.1474 46.592 14.3249 44.3266 15.63C42.0611 16.9359 40.5317 19.2206 40.1888 21.8128C39.8453 24.4043 40.7272 27.0086 42.5747 28.8588C44.1471 30.4412 46.2865 31.3291 48.5171 31.3259L48.5172 31.3257ZM44.6004 19.0089C45.637 17.971 47.0432 17.3877 48.5105 17.3871C49.9778 17.3864 51.3847 17.9683 52.4225 19.0056C53.4598 20.0422 54.043 21.4491 54.043 22.9162C54.043 24.3833 53.4598 25.7904 52.4225 26.8269C51.3845 27.8641 49.9776 28.4467 48.5105 28.4461C47.0433 28.4454 45.637 27.8614 44.6004 26.8235C43.5671 25.7856 42.9879 24.3807 42.9879 22.9161C42.9879 21.4516 43.5671 20.0468 44.6004 19.0088V19.0089Z" fill="#fff"/>
<path d="M3.13827 56.5737C1.94764 63.6491 0.363866 71.3193 0.344494 71.3963C0.206547 72.0479 0.536682 72.7088 1.14136 72.99C1.33221 73.0838 1.54247 73.1333 1.75542 73.134C2.19404 73.1333 2.60788 72.9318 2.87908 72.5869C4.20364 70.9356 8.45651 66.7403 12.1623 67.1434C18.7865 67.9115 22.7226 63.783 24.4595 60.3371L26.1303 61.9597C26.3975 62.2329 26.7651 62.3856 27.1475 62.3815C27.2493 62.3956 27.3531 62.3956 27.4549 62.3815C27.9464 62.2644 28.3421 61.9014 28.5015 61.4219L30.5467 55.748H30.546C31.4279 55.442 32.293 55.0897 33.1382 54.692C36.5561 57.9947 38.4564 62.2569 39.0711 68.0265H39.0705C39.1294 68.6145 39.3544 69.1736 39.72 69.6384C40.0863 70.1024 40.5765 70.4526 41.135 70.6475C41.4792 70.7727 41.8435 70.8377 42.2098 70.839C43.0415 70.8243 43.8323 70.4788 44.4082 69.8794C51.9443 62.4778 53.5856 53.905 49.4579 43.7194C51.2144 42.2797 53.0867 40.6759 55.0835 38.9194C61.216 33.4169 65.7529 26.363 68.2165 18.5006C68.2473 18.4222 68.2734 18.3419 68.2928 18.2602C69.7366 13.6577 70.4873 8.86641 70.52 4.04293C70.5154 3.21592 70.1852 2.4244 69.6013 1.83853C69.0174 1.25325 68.2272 0.92044 67.4001 0.913086H67.2368C62.4676 0.964648 57.7326 1.71866 53.1824 3.14971C53.0966 3.16512 53.0129 3.19123 52.9332 3.22672C45.0549 5.68227 37.9848 10.2159 32.4664 16.3497C30.6618 18.356 29.0586 20.1894 27.6664 21.9848C17.4906 17.847 8.91724 19.4984 1.50638 27.0345H1.50705C0.950578 27.6011 0.629148 28.3571 0.606382 29.1507C0.583615 29.9442 0.861521 30.7176 1.38452 31.3149C1.90751 31.9123 2.63742 32.2899 3.42692 32.3723C9.18726 32.977 13.4682 34.8875 16.7709 38.2953C16.3664 39.1404 16.0135 40.009 15.7149 40.8969L10.0409 42.9421C9.56013 43.0928 9.19451 43.4872 9.08133 43.9787C8.97419 44.4602 9.11883 44.9624 9.46504 45.3133L10.8472 46.6954C8.24627 48.0394 4.06976 51.0346 3.1389 56.574L3.13827 56.5737ZM13.0456 56.1418C13.1226 55.1815 14.62 53.5208 16.262 52.1386L18.8728 54.7495C16.3189 55.7479 13.8807 56.3432 13.0456 56.1416V56.1418ZM42.3822 67.9208C42.3146 68.0025 42.2014 68.03 42.1043 67.9885C42.0099 67.9583 41.9416 67.8753 41.9315 67.7768C41.2981 61.7575 39.3011 57.025 35.8451 53.3769C39.7961 51.1148 43.5647 48.5474 47.1152 45.6967C50.4078 54.4328 48.891 61.537 42.3822 67.9207L42.3822 67.9208ZM67.6405 4.0517C67.6184 7.79364 67.1316 11.5183 66.1914 15.1397L56.3034 5.25169C59.8746 4.32089 63.5469 3.83071 67.2373 3.79255C67.4389 3.79255 67.6404 3.85951 67.6404 4.0517H67.6405ZM34.6062 18.2789C39.6258 12.6934 46.0203 8.52015 53.1531 6.17312L65.2589 18.2789C62.9178 25.4173 58.7432 31.8164 53.1531 36.836C39.7996 48.836 32.1188 52.1869 29.8354 52.9831L25.16 48.3077L39.0418 34.4266C39.5708 33.8594 39.5554 32.9748 39.0069 32.4264C38.4585 31.8786 37.5746 31.8625 37.0067 32.3916L23.1249 46.2733L18.4496 41.5885H18.4502C18.8071 40.6021 19.227 39.6406 19.7078 38.7084V38.6414C21.6276 34.8391 25.746 28.1386 34.6067 18.2791L34.6062 18.2789ZM3.66507 29.5015C3.56529 29.5035 3.47689 29.4358 3.45412 29.3381C3.41461 29.239 3.43738 29.1258 3.51171 29.0501C9.90548 22.5988 17.009 21.0245 25.746 24.3264C22.8907 27.8734 20.3218 31.6423 18.0658 35.5971C14.4183 32.1411 9.67594 30.1349 3.66583 29.5013L3.66507 29.5015ZM16.4432 43.7187L21.0898 48.3553L20.0049 49.4402H20.0043C19.4478 50.0047 19.4478 50.9114 20.0043 51.4759C20.2721 51.7484 20.6398 51.9011 21.0221 51.8977C21.4165 51.8837 21.7868 51.7022 22.0393 51.3988L23.1241 50.314L27.7707 54.9606L26.5613 58.3302L13.1217 44.8905L16.4432 43.7187ZM12.9778 48.9024L14.2159 50.1312C12.4113 51.6673 9.8673 54.2876 10.1934 56.7265C10.2992 57.5402 10.788 58.254 11.5085 58.6471C12.126 58.9484 12.809 59.0904 13.4954 59.0595C15.886 59.0595 19.0634 57.8689 21.0791 56.9957L22.2797 58.1187C21.4922 60.0385 18.8431 64.9731 12.4876 64.2433C9.31955 63.8884 6.29538 65.6067 4.07812 67.3632C4.6346 64.483 5.36451 60.6433 5.99795 57.0044C6.81424 52.1187 11.1724 49.6712 12.977 48.8549L12.9778 48.9024Z" fill="#fff"/>
</svg>
