<svg width="67" height="89" viewBox="0 0 67 89" fill="none" xmlns="http://www.w3.org/2000/svg">
<path d="M35.188 34.5071C34.1106 34.3953 33.0238 34.3953 31.9464 34.5071C24.798 35.0711 18.4563 39.3101 15.2018 45.6989C11.9472 52.0888 12.2475 59.7105 15.9942 65.824C19.7409 71.9373 26.3959 75.6642 33.5666 75.6642C40.7372 75.6642 47.3922 71.9376 51.1402 65.824C54.8869 59.7108 55.1871 52.0891 51.9326 45.6989C48.6768 39.3101 42.3363 35.0711 35.1879 34.5071H35.188ZM46.6492 66.0215C42.9603 70.425 37.3109 72.687 31.6037 72.0464C25.8952 71.4059 20.8888 67.9476 18.2679 62.8351C15.6481 57.7237 15.7634 51.6397 18.5752 46.6321C21.387 41.6232 26.5218 38.357 32.2501 37.9331C32.6775 37.9108 33.1061 37.9108 33.5335 37.9331C33.9774 37.9096 34.4225 37.9096 34.8664 37.9331C40.4299 38.3653 45.433 41.4843 48.2694 46.2897C49.839 48.9225 50.662 51.9333 50.6491 54.9994C50.6455 59.0347 49.2173 62.9379 46.615 66.0215H46.6492Z" fill="black"/>
<path d="M40.5716 47.9116L30.0216 58.4616L26.4255 54.8655C25.7497 54.1897 24.6546 54.1897 23.9776 54.8655C23.3017 55.5414 23.3017 56.6376 23.9776 57.3135L28.8053 62.1411H28.8065C29.1244 62.4767 29.5671 62.6663 30.0298 62.6663C30.4926 62.6663 30.9353 62.4767 31.2532 62.1411L43.0689 50.3254H43.0701C43.7459 49.6496 43.7459 48.5534 43.0701 47.8775C42.393 47.2016 41.298 47.2016 40.6222 47.8775L40.5716 47.9116Z" fill="black"/>
<path d="M63.0552 47.4896L61.8401 46.4605C60.2423 45.1288 59.4028 43.0966 59.5947 41.0254L59.7301 39.4382C59.9091 37.1917 59.3133 34.9521 58.0428 33.0917L57.9415 32.9233C56.9513 31.5127 55.609 30.3882 54.0477 29.663C52.4852 28.9365 50.7603 28.6351 49.0446 28.787L47.6599 28.9048L53.3153 6.75911C53.4377 6.3152 53.3741 5.84068 53.1375 5.44623C52.902 5.05061 52.5146 4.7692 52.0672 4.6656L36.7238 0.765715H36.7227C36.2776 0.645614 35.8007 0.71273 35.4063 0.951753C35.0083 1.18371 34.721 1.56757 34.6127 2.01498L33.4988 6.48818L32.3508 1.9984C32.2424 1.55096 31.9563 1.16595 31.5572 0.935172C31.1627 0.69497 30.687 0.627867 30.2408 0.749134L14.9303 4.6653C14.4829 4.76891 14.0955 5.05031 13.86 5.44594C13.6233 5.84038 13.5597 6.31489 13.6822 6.75881L19.3032 28.9057L17.9185 28.7879V28.7867C16.2006 28.6337 14.472 28.9351 12.9085 29.6604C11.3437 30.3869 9.99784 31.5114 9.0053 32.9231L8.90404 33.0914C7.63119 34.9507 7.03542 37.1915 7.21673 39.438L7.35214 41.0417C7.54289 43.1211 6.69629 45.1604 5.09025 46.4946L3.89159 47.5072C1.65441 49.364 0.360352 52.1205 0.360352 55.0275C0.360352 57.9335 1.65438 60.6899 3.89159 62.5467L5.10671 63.5758V63.5769C6.70687 64.9134 7.54758 66.9526 7.3521 69.0286L7.2167 70.6158C6.95412 73.5135 7.99146 76.377 10.0496 78.4342C12.1067 80.4912 14.9702 81.5299 17.8681 81.2672L19.4718 81.1318C21.5512 80.9375 23.5929 81.7841 24.9234 83.3937L25.936 84.5923C27.7929 86.8295 30.5494 88.1236 33.4564 88.1236C36.3634 88.1236 39.1199 86.8295 40.9767 84.5923L42.0058 83.3772C43.3387 81.7712 45.3815 80.9305 47.4587 81.1318L49.0459 81.2672H49.0447C51.9424 81.5298 54.8071 80.4913 56.8641 78.4343C58.921 76.3773 59.9585 73.5137 59.6958 70.6158L59.5604 69.0121H59.5616C59.3697 66.9327 60.2163 64.8934 61.8235 63.5593L63.0221 62.5467C65.264 60.6898 66.5627 57.93 66.5627 55.0179C66.5627 52.1058 65.264 49.3462 63.0221 47.4891L63.0552 47.4896ZM37.5667 4.53L49.5521 7.58559L44.2852 28.3477L44.0827 28.2464C43.8119 28.1087 43.5529 27.9509 43.3056 27.7743L42.9677 27.5211C42.6286 27.255 42.3177 26.9559 42.0399 26.6262L41.0272 25.4276C39.2434 23.2611 36.6083 21.9741 33.8023 21.9C33.5951 21.8764 33.3855 21.8764 33.1782 21.9L37.5667 4.53ZM29.4468 4.53L31.7252 13.5105L29.3456 22.8617C28.0386 23.4634 26.8847 24.3512 25.9699 25.4615L24.9408 26.6766C24.3379 27.4031 23.5749 27.9812 22.7119 28.3651L17.445 7.58522L29.4468 4.53ZM60.8436 59.8964L59.645 60.909V60.9102C57.1629 62.9755 55.8617 66.1346 56.168 69.3502L56.3034 70.9374V70.9362C56.4765 72.8155 55.8053 74.6745 54.4713 76.0087C53.1372 77.3428 51.278 78.0139 49.4 77.8408L47.8128 77.7054C44.5984 77.4016 41.4403 78.7027 39.3728 81.1824L38.3437 82.3975H38.3426C37.1404 83.8516 35.3518 84.6947 33.4642 84.6947C31.578 84.6947 29.7895 83.8516 28.5859 82.3975L27.5733 81.1988C25.7188 78.964 22.966 77.6712 20.0623 77.6712H19.1674L17.5802 77.8066C15.7069 77.9691 13.8582 77.2932 12.5313 75.9604C11.2055 74.6275 10.5379 72.7755 10.7098 70.9033L10.8452 69.3161C11.1513 66.1004 9.85021 62.9424 7.36819 60.8761L6.15308 59.847V59.8458C4.69893 58.6436 3.85586 56.8551 3.85586 54.9675C3.85586 53.0812 4.69893 51.2928 6.15308 50.0892L7.35174 49.0765C9.83382 47.0101 11.135 43.8522 10.8287 40.6365L10.6933 39.0493C10.5591 37.5587 10.9594 36.0692 11.8248 34.8471L11.9096 34.7117H11.9084C13.2366 32.9361 15.3878 31.9718 17.5967 32.1625L19.1662 32.2979H19.1674C20.0293 32.3827 20.8994 32.3427 21.7496 32.1802H21.9191C24.1363 31.7528 26.1322 30.5577 27.5567 28.8045L28.5858 27.5717C29.3053 26.6851 30.2578 26.0187 31.3376 25.6478C32.0381 25.4405 32.7682 25.3499 33.4982 25.3769H33.7007C34.3801 25.3852 35.0524 25.5053 35.693 25.7314C36.7656 26.1046 37.7135 26.771 38.427 27.6565L39.4396 28.8552C40.9009 30.6402 42.9567 31.8388 45.2304 32.2309H45.314C46.137 32.3851 46.9777 32.4251 47.8126 32.3486L49.4162 32.2132C51.6287 32.0024 53.7894 32.9703 55.1045 34.7624L55.1893 34.8978C56.0571 36.1247 56.4586 37.6212 56.3196 39.1178L56.1842 40.705L56.1854 40.7038C55.8781 43.9194 57.1804 47.0784 59.6624 49.1438L60.8775 50.1564V50.1576C62.3317 51.3598 63.1736 53.1483 63.1736 55.0359C63.1736 56.9222 62.3317 58.7106 60.8775 59.9142L60.8436 59.8964Z" fill="black"/>
</svg>
