<svg width="63" height="74" viewBox="0 0 63 74" fill="none" xmlns="http://www.w3.org/2000/svg">
<path d="M60.0504 0.0898643H2.70349C1.37964 0.0898643 0.303955 1.15681 0.303955 2.46835V71.5662C0.303955 72.8785 1.38034 73.9447 2.70349 73.9447H41.1166C41.2661 73.9447 41.4156 73.9145 41.5543 73.8577C41.6822 73.8047 41.7935 73.7265 41.8927 73.6339C41.9016 73.625 41.9143 73.6225 41.9233 73.6137L62.1175 53.5691C62.2136 53.4739 62.2829 53.3623 62.3377 53.245C62.3536 53.2097 62.3625 53.175 62.3752 53.139C62.4095 53.0419 62.4286 52.9448 62.4356 52.842C62.4369 52.8174 62.4503 52.7966 62.4503 52.7708L62.4509 2.46803C62.4509 1.15579 61.3739 0.0895386 60.0501 0.0895386L60.0504 0.0898643ZM2.58135 71.5688V2.46932C2.58135 2.40248 2.63478 2.35077 2.70095 2.35077H60.0495C60.1182 2.35077 60.1691 2.40248 60.1691 2.46932V51.6421H42.3753C41.0514 51.6421 39.9757 52.709 39.9757 54.0206V71.6873H2.70264C2.63521 71.6873 2.58177 71.6343 2.58177 71.5688L2.58135 71.5688ZM42.255 70.0863V54.0222C42.255 53.9554 42.3084 53.9037 42.3746 53.9037H58.5592L42.255 70.0863Z" fill="#fff"/>
<path d="M31.6107 16.4282L33.834 14.8271L36.0567 16.4282L35.2074 13.8371L37.4314 12.236H34.6832L33.8339 9.64496L32.9846 12.236H30.2371L32.4597 13.8371L31.6107 16.4282Z" fill="#fff"/>
<path d="M41.1654 16.4282L43.3881 14.8271L45.6114 16.4282L44.7622 13.8371L46.9848 12.236H44.2373L43.388 9.64496L42.5387 12.236H39.7905L42.0145 13.8371L41.1654 16.4282Z" fill="#fff"/>
<path d="M50.7186 16.4282L52.9426 14.8271L55.1659 16.4282L54.3166 13.8371L56.5393 12.236H53.7905L52.9425 9.64496L52.0932 12.236H49.345L51.5676 13.8371L50.7186 16.4282Z" fill="#fff"/>
<path d="M52.507 22.3768H36.0519C35.4214 22.3768 34.9119 22.8819 34.9119 23.5068C34.9119 24.1317 35.4214 24.6368 36.0519 24.6368H52.5086C53.139 24.6368 53.6486 24.1317 53.6486 23.5068C53.6479 22.8819 53.1384 22.3768 52.5079 22.3768H52.507Z" fill="#fff"/>
<path d="M36.0519 29.1569H44.0319C44.6623 29.1569 45.1719 28.6518 45.1719 28.0269C45.1719 27.4019 44.6623 26.8969 44.0319 26.8969H36.0519C35.4214 26.8969 34.9119 27.4019 34.9119 28.0269C34.9119 28.6518 35.4227 29.1569 36.0519 29.1569Z" fill="#fff"/>
<path d="M52.9418 31.4169H36.0519C35.4214 31.4169 34.9119 31.922 34.9119 32.5469C34.9119 33.1718 35.4214 33.6769 36.0519 33.6769H52.9402C53.5706 33.6769 54.0802 33.1718 54.0802 32.5469C54.0802 31.922 53.5719 31.4169 52.9414 31.4169H52.9418Z" fill="#fff"/>
<path d="M52.9418 35.9045H36.0519C35.4214 35.9045 34.9119 36.4096 34.9119 37.0345C34.9119 37.6594 35.4214 38.1645 36.0519 38.1645H52.9402C53.5706 38.1645 54.0802 37.6594 54.0802 37.0345C54.0802 36.4096 53.5719 35.9045 52.9414 35.9045H52.9418Z" fill="#fff"/>
<path d="M38.5696 41.5239C38.5696 40.899 38.0601 40.3939 37.4296 40.3939H7.55187C6.92143 40.3939 6.41187 40.899 6.41187 41.5239C6.41187 42.1488 6.92143 42.6539 7.55187 42.6539H37.4296C38.0594 42.6539 38.569 42.1488 38.569 41.5239H38.5696Z" fill="#fff"/>
<path d="M52.9417 40.3939H41.8026C41.1722 40.3939 40.6626 40.899 40.6626 41.5239C40.6626 42.1488 41.1722 42.6539 41.8026 42.6539H52.9417C53.5721 42.6539 54.0817 42.1488 54.0817 41.5239C54.0817 40.899 53.5721 40.3939 52.9417 40.3939Z" fill="#fff"/>
<path d="M52.9416 44.8832H23.4059C22.7754 44.8832 22.2659 45.3883 22.2659 46.0132C22.2659 46.6381 22.7754 47.1432 23.4059 47.1432H52.9416C53.5721 47.1432 54.0816 46.6381 54.0816 46.0132C54.0816 45.3883 53.5721 44.8832 52.9416 44.8832Z" fill="#fff"/>
<path d="M18.6537 47.1432C19.2841 47.1432 19.7937 46.6381 19.7937 46.0132C19.7937 45.3883 19.2841 44.8832 18.6537 44.8832H7.55333C6.92289 44.8832 6.41333 45.3883 6.41333 46.0132C6.41333 46.6381 6.92289 47.1432 7.55333 47.1432H18.6537Z" fill="#fff"/>
<path d="M52.5069 26.8969H48.5907C47.9602 26.8969 47.4507 27.4019 47.4507 28.0269C47.4507 28.6518 47.9602 29.1569 48.5907 29.1569H52.5069C53.1373 29.1569 53.6469 28.6518 53.6469 28.0269C53.6469 27.4019 53.1373 26.8969 52.5069 26.8969Z" fill="#fff"/>
<path d="M17.6929 24.6449C21.7249 24.6449 25.0062 21.0084 25.0062 16.5394C25.0062 12.0705 21.7254 8.43396 17.6929 8.43396C13.6609 8.43396 10.3796 12.0705 10.3796 16.5394C10.3796 21.0084 13.6604 24.6449 17.6929 24.6449ZM17.6929 10.6953C20.4691 10.6953 22.7262 13.3165 22.7262 16.5407C22.7262 19.765 20.4691 22.3862 17.6929 22.3862C14.9167 22.3862 12.6596 19.765 12.6596 16.5407C12.6596 13.3165 14.9167 10.6953 17.6929 10.6953Z" fill="#fff"/>
<path d="M30.2248 34.9182C30.2248 29.7575 24.6036 25.5586 17.6937 25.5586C10.7843 25.5586 5.16382 29.7577 5.16382 34.9182V36.0482H30.2243L30.2248 34.9182Z" fill="#fff"/>
<path d="M21.4418 52.0103L13.1367 59.1939L9.28664 55.5396C8.83434 55.1089 8.11356 55.1241 7.67461 55.5749C7.23884 56.0245 7.25539 56.7402 7.71024 57.1728L12.3123 61.5414C12.5311 61.7507 12.8148 61.8541 13.0998 61.8541C13.3664 61.8541 13.6342 61.7614 13.8486 61.5748L22.9386 53.7108C23.4126 53.3015 23.4622 52.5877 23.048 52.1173C22.6358 51.6475 21.915 51.5977 21.4417 52.0101L21.4418 52.0103Z" fill="#fff"/>
</svg>
