<svg width="87" height="88" viewBox="0 0 87 88" fill="none" xmlns="http://www.w3.org/2000/svg">
<path d="M8.22983 87.2001H78.9431C80.6931 87.1769 82.3746 86.5048 83.6732 85.3102C84.9719 84.1149 85.7983 82.4786 85.9983 80.7074C86.4103 75.3578 86.3883 69.9826 85.9315 64.6377C85.0018 49.8406 62.4587 46.7414 61.5553 46.6324C58.0444 45.9919 56.4059 43.1173 55.65 40.8892C58.9919 36.736 61.4228 31.9022 62.7794 26.7125C63.3335 24.6688 63.6172 22.5587 63.6219 20.4383C63.6219 19.8526 63.6219 19.2802 63.5419 18.7079C65.876 14.7359 65.8157 9.94708 65.1672 7.12663C64.9666 6.2477 64.5385 4.40163 63.0876 4.57198C59.9236 4.87855 53.5704 2.72598 51.3636 1.90179C37.7945 -3.72526 29.7833 4.76973 28.2119 6.64983C19.4244 10.022 23.8847 26.8756 24.1057 27.6043C24.163 27.8075 24.2663 27.9942 24.4066 28.1493C25.6283 33.1535 27.9439 37.8109 31.1813 41.7743C30.3119 43.8181 28.6866 46.0661 25.6975 46.6111C24.7141 46.7407 2.22477 49.8336 1.24037 64.5821C0.572813 69.944 0.514299 75.3659 1.06662 80.7406C1.30844 82.5106 2.16349 84.1334 3.47656 85.3178C4.79019 86.5021 6.47516 87.1694 8.22889 87.1991L8.22983 87.2001ZM46.0482 84.4751H42.25V84.4136C42.2458 81.9593 41.8852 79.5189 41.18 77.1723L43.1863 62.1233H44.5238L46.9851 77.7913H46.9845C46.3754 79.9652 46.0608 82.2132 46.0482 84.4742L46.0482 84.4751ZM43.8348 55.453C44.1292 55.9846 46.1624 59.3976 46.1624 59.3976H41.4943C41.4943 59.3976 43.6743 55.8618 43.8348 55.453ZM42.8986 50.2073L39.1602 47.0055C40.4798 47.379 41.843 47.5694 43.2127 47.5712C45.4721 47.5718 47.6998 47.028 49.7133 45.9837L44.7711 50.2074C44.7209 50.2512 44.6738 50.2993 44.6308 50.3504C44.5096 50.4976 44.3979 50.6521 44.2964 50.8139H43.3733C43.2718 50.6521 43.1601 50.4976 43.0389 50.3504C42.9959 50.2993 42.9487 50.2512 42.8986 50.2074L42.8986 50.2073ZM68.0894 50.936C74.3888 52.905 82.8019 56.9858 83.2636 64.8542C83.6995 70.0439 83.7222 75.2616 83.3305 80.4552C83.1919 81.5489 82.673 82.5555 81.8682 83.2928C81.0633 84.0307 80.0255 84.4497 78.9435 84.4747H48.7222C48.7401 79.6511 50.2937 74.9633 53.1497 71.1155L67.8622 51.3584C67.9619 51.2325 68.0389 51.0896 68.0891 50.9357L68.0894 50.936ZM65.4144 50.1799L51.0233 69.487C50.2267 70.5618 49.5174 71.7011 48.9036 72.8932L47.1983 61.9932C47.3273 61.9354 47.4473 61.8576 47.5524 61.7615C47.5524 61.7615 47.7399 62.068 47.7864 62.1155V62.1161C48.4749 63.0151 49.5593 63.5029 50.6758 63.4171C51.7272 63.1824 52.6206 62.4798 53.1095 61.5029L61.4355 49.3627C62.0243 49.4515 63.489 49.7307 65.4014 50.1802L65.4144 50.1799ZM58.466 48.9537C58.4666 48.9537 50.7825 60.167 50.7354 60.235C50.6351 60.4047 50.4548 60.5082 50.2607 60.5082C50.0667 60.5082 49.8863 60.4047 49.786 60.235C49.786 60.235 46.6298 54.9487 46.5892 54.8939V54.8945C45.9783 54.0928 45.9783 52.9706 46.5892 52.1695L54.527 45.4185L58.466 48.9537ZM29.4155 9.10797C29.6842 9.01855 29.9183 8.84459 30.0843 8.61102C33.0954 4.84709 37.6226 2.68173 42.3893 2.72486C45.1347 2.75893 47.8473 3.33981 50.3742 4.43461C50.6955 4.55747 57.8373 7.30925 62.4117 7.30925V7.30986C63.0715 9.97164 62.9718 12.7695 62.1239 15.3754C61.1357 18.2714 58.8973 20.5443 56.0514 21.5407C55.9379 21.5882 44.4086 25.8666 36.9259 18.9386C36.5587 18.6235 36.0535 18.5335 35.6033 18.7026C35.1525 18.8717 34.8253 19.2738 34.7459 19.7561L34.2843 23.3733L31.4624 21.4591C30.9633 21.1216 30.3047 21.1635 29.8509 21.5613L26.1924 24.7292C25.3636 20.3826 24.1796 10.7976 29.4161 9.10793L29.4155 9.10797ZM27.008 27.6037L30.7931 24.2996L33.6353 26.2345C34.9728 27.1542 36.745 26.5411 36.8118 24.7291L37.0925 22.4809C39.4336 24.0575 42.0997 25.0648 44.8834 25.4236C47.239 25.7307 49.6255 25.6991 51.9722 25.3287C55.0616 24.8652 58.1851 24.0069 60.6659 22.0039C60.6994 22.0039 60.8869 21.8609 60.8934 21.8202C60.8057 23.2222 60.5817 24.6115 60.2247 25.9685C58.3994 32.6996 54.9016 38.5856 50.6084 42.1893C45.5391 46.4405 37.9022 45.5407 33.2943 40.1455C30.2879 36.507 28.1378 32.2175 27.0081 27.6032L27.008 27.6037ZM33.1605 45.4735L41.0984 52.2245C41.7098 53.0262 41.7098 54.1479 41.0984 54.9495C41.0518 55.0042 37.4203 60.7467 37.3468 60.7335C37.2733 60.7202 29.215 48.9545 29.215 48.9545L33.1605 45.4735ZM26.0718 49.3092H26.1852L26.2252 49.384L34.5584 61.4962C34.9955 62.5078 35.9025 63.2273 36.9725 63.4111C37.0949 63.419 37.2179 63.419 37.3403 63.4111C38.3398 63.3776 39.2719 62.8898 39.8815 62.0826L39.9615 61.9671V61.9665C40.1275 62.0437 40.3072 62.0857 40.49 62.0893L39.1525 72.24C38.63 71.2936 38.0472 70.383 37.4071 69.515L22.768 49.9417C24.7139 49.4989 26.0049 49.3219 26.0717 49.3085L26.0718 49.3092ZM3.89679 64.9305V64.8149C4.41149 56.6399 13.5872 52.5524 19.9468 50.6723L35.2074 71.1503C38.0072 74.9847 39.5244 79.6348 39.5341 84.414V84.4755H8.23044C7.13417 84.4542 6.08097 84.0381 5.25752 83.3009C4.43353 82.5643 3.89255 81.5539 3.73014 80.4495C3.20827 75.2866 3.2644 70.0804 3.89734 64.9304L3.89679 64.9305Z" fill="black"/>
<path d="M63.3348 79.1543L66.6319 80.3465L66.8594 80.4213C67.3174 80.602 67.8255 80.602 68.2835 80.4213L71.8076 79.1543H71.8082C72.3683 78.9591 72.8562 78.5929 73.2043 78.1051C73.5524 77.6179 73.7446 77.0321 73.7542 76.4293V70.3935C73.7524 69.7414 73.4974 69.1167 73.0448 68.6563C72.5928 68.1953 71.9796 67.9355 71.3402 67.9337H63.8029C63.1634 67.9355 62.5502 68.1953 62.0977 68.6563C61.6457 69.1168 61.3907 69.7415 61.3889 70.3935V76.4293C61.3985 77.0321 61.5907 77.6178 61.9388 78.1051C62.2869 78.5929 62.7748 78.9591 63.3349 79.1543L63.3348 79.1543ZM64.0639 70.6794H71.0858V76.4293C71.0691 76.478 71.0416 76.5224 71.0058 76.5589L67.6621 77.7718H67.5152L64.1714 76.5662L64.1708 76.5656C64.129 76.5352 64.095 76.4956 64.0705 76.4494L64.0639 70.6794Z" fill="black"/>
<path d="M34.5595 10.8113C34.904 10.8027 35.2324 10.6586 35.4755 10.4098C36.9598 8.88368 40.2171 6.52661 45.3526 7.9025C45.7013 8.00894 46.0769 7.96576 46.3934 7.78389C46.7104 7.60201 46.9403 7.29667 47.0317 6.9378C47.1224 6.57953 47.0663 6.19876 46.8758 5.88308C46.6854 5.56801 46.3767 5.34478 46.0214 5.26631C43.8582 4.61669 41.5623 4.57412 39.3769 5.14223C37.1908 5.71034 35.1965 6.8691 33.603 8.49491C33.222 8.88542 33.1092 9.47117 33.317 9.97968C33.5248 10.4876 34.012 10.8185 34.5524 10.8185L34.5595 10.8113Z" fill="black"/>
</svg>
