<svg width="80" height="79" viewBox="0 0 80 79" fill="none" xmlns="http://www.w3.org/2000/svg">
<path d="M57.6396 26.5412L47.5929 25.0965L43.0791 16.0246C42.8165 15.4962 42.2738 15.1622 41.6804 15.1622C41.087 15.1622 40.5444 15.4962 40.2818 16.0246L35.7992 25.0965L25.7524 26.5412C25.1721 26.6247 24.6867 27.0228 24.4945 27.5728C24.3073 28.1343 24.4611 28.7519 24.8899 29.1623L32.1697 36.1904L30.454 46.118H30.4533C30.3444 46.7011 30.5882 47.2936 31.0772 47.6348C31.5567 47.9832 32.1936 48.0314 32.721 47.7586L41.6962 43.063L50.6816 47.7586C50.9072 47.8723 51.1561 47.9328 51.4093 47.9343C51.8699 47.9314 52.3059 47.7284 52.6019 47.3792C52.8979 47.0294 53.0248 46.5687 52.9487 46.118L51.233 36.1904L58.5128 29.1623C58.9415 28.7519 59.0946 28.1343 58.9082 27.5728C58.7137 27.0199 58.2241 26.6211 57.6394 26.5412H57.6396ZM48.4562 34.6008C48.0928 34.9557 47.9267 35.4639 48.0086 35.9628L49.3195 43.5789L42.4039 39.9666L42.4032 39.9673C42.1776 39.8535 41.9287 39.7931 41.6755 39.7916C41.4252 39.7923 41.1793 39.8521 40.9581 39.9673L34.0424 43.5796L35.3635 35.9325L35.3628 35.9318C35.4375 35.4445 35.2757 34.9513 34.926 34.6008L29.3306 29.1931L37.058 28.0679C37.5673 27.9988 38.0084 27.6813 38.2332 27.2221L41.6864 20.2767L45.1591 27.1911C45.384 27.6504 45.825 27.9679 46.3343 28.037L54.0617 29.1621L48.4562 34.6008Z" fill="black"/>
<path d="M70.8683 53.3714C68.6948 53.9905 65.4811 54.9501 62.2151 55.9514C62.239 55.8585 62.2739 55.7685 62.3196 55.6829L62.6837 55.0739V55.0746C62.831 54.827 63.0697 54.6456 63.3489 54.5685C65.772 53.9185 69.5893 53.2577 69.6827 53.2267C70.6534 52.9999 71.484 52.378 71.9707 51.5141C72.4386 50.6402 72.5213 49.613 72.1993 48.6758L69.9634 42.0918C69.9112 41.9313 69.9555 41.7549 70.0773 41.6376L75.1735 36.88C75.8997 36.1983 76.303 35.2452 76.2849 34.254C76.2668 33.2627 75.8301 32.3239 75.0799 31.669L69.8799 27.0762C69.7537 26.9661 69.7051 26.7919 69.7552 26.6328L71.7626 19.9762C72.0506 19.026 71.9221 17.9994 71.4085 17.1485C70.8935 16.3056 70.0505 15.7124 69.0791 15.5073L62.2259 14.1345V14.1352C62.0583 14.1042 61.9241 13.979 61.8828 13.8148L60.2708 7.05525C60.0416 6.09062 59.4141 5.26638 58.5406 4.78484C57.6679 4.30397 56.6306 4.21039 55.6838 4.52714L49.0075 6.73562C48.8458 6.78673 48.668 6.74282 48.5498 6.62188L43.7554 1.57558C43.0611 0.862915 42.1021 0.463383 41.1032 0.471307C40.1057 0.487864 39.1612 0.92266 38.5032 1.66845L33.8748 6.88023H33.8756C33.7638 7.00477 33.589 7.05372 33.4279 7.00405L26.7198 5.0121H26.7205C25.7629 4.72487 24.7278 4.85301 23.8694 5.36412C23.0119 5.8745 22.412 6.7218 22.2168 7.69497L20.8334 14.4955C20.8022 14.6618 20.6767 14.7949 20.5113 14.8367L13.6993 16.4262V16.4255C12.7272 16.658 11.898 17.2828 11.4113 18.1488C10.9231 19.0155 10.8281 20.0471 11.1516 20.9872L13.3874 27.5712C13.4404 27.7288 13.3954 27.9023 13.2728 28.0153L8.17662 32.783H8.17735C7.46859 33.4633 7.07612 34.4048 7.09354 35.3831C7.11167 36.3614 7.5375 37.2886 8.27093 37.943L13.4709 42.5358V42.535C13.6109 42.6776 13.6516 42.8885 13.5747 43.0721L12.2957 48.7892C8.58569 49.4478 4.99417 50.6442 1.63534 52.3396C0.910624 52.7643 0.655989 53.6829 1.06077 54.4158C1.46485 55.1486 2.38181 55.4308 3.13334 55.0536C3.21677 55.0536 11.4535 50.5955 20.2618 51.4932C23.7759 51.8689 27.1274 53.1618 29.9756 55.2393C31.6216 56.4645 33.5164 57.3205 35.5288 57.7473C45.1902 59.192 48.6224 60.1826 48.6224 62.9073C48.642 63.2607 48.4773 63.5998 48.1857 63.8049C45.7938 65.6111 36.5895 64.1044 30.8177 62.4631C29.9877 62.227 29.1216 62.7028 28.8836 63.5264C28.645 64.3499 29.1245 65.2094 29.9544 65.4455C34.4724 66.7614 39.1342 67.5274 43.8388 67.7268C46.3661 67.7268 48.6434 67.3453 50.0791 66.2719L50.0784 66.2712C51.1622 65.488 51.7876 64.226 51.7527 62.8966V62.4632C55.2371 61.4309 66.5308 57.8603 71.7616 56.3847C74.3928 55.631 75.7654 56.23 76.057 56.808C76.3479 57.3861 75.9946 58.2629 74.7359 59.1713C70.3057 62.3703 45.0328 75.2703 40.0519 75.2913H39.9373C26.5841 75.2913 3.10088 68.4599 2.8706 68.3979L2.87205 68.3972C2.46725 68.2482 2.01819 68.2727 1.63153 68.4642C1.2456 68.6564 0.956868 68.9983 0.83426 69.4093C0.711659 69.8204 0.766068 70.2631 0.984427 70.6331C1.20351 71.0024 1.56696 71.2652 1.98844 71.3595C2.96633 71.6481 26.1369 78.3876 39.9373 78.3876H40.0621C46.4163 78.3876 72.7496 64.4242 76.5661 61.6795C78.9267 59.9662 79.8523 57.4689 78.8541 55.4871C77.9182 53.5989 75.3183 52.1432 70.8669 53.3715L70.8683 53.3714ZM35.9967 54.6412C34.4203 54.2655 32.9419 53.5621 31.6599 52.5767C28.3939 50.2595 24.5701 48.8355 20.5737 48.449C18.916 48.3051 17.2498 48.3051 15.5921 48.449L16.6324 44.0009C16.8304 43.3574 16.8377 42.6706 16.6534 42.0228C16.4684 41.3749 16.1006 40.7933 15.5921 40.3477L10.3921 35.7549V35.7556C10.2992 35.675 10.2463 35.5577 10.2463 35.4353C10.2419 35.3144 10.2913 35.197 10.3819 35.1157L15.4781 30.3582H15.4774C15.9714 29.8946 16.3218 29.3 16.4858 28.6456C16.6497 27.9905 16.6214 27.303 16.4031 26.6638L14.1673 20.0798V20.0791C14.1165 19.9711 14.1165 19.8466 14.1673 19.7386C14.2246 19.6292 14.3269 19.55 14.448 19.5219L21.2396 17.8504C21.9012 17.6934 22.504 17.3515 22.9756 16.8649C23.4478 16.3782 23.7692 15.7671 23.902 15.1048L25.2854 8.30428H25.2847C25.3079 8.1819 25.3841 8.07679 25.4929 8.01489C25.6017 7.96594 25.7272 7.96594 25.836 8.01489L32.5332 10.0068C33.184 10.2041 33.8775 10.212 34.5326 10.0292C35.187 9.8463 35.7746 9.47989 36.2258 8.97526L40.8542 3.76347H40.8535C40.9347 3.67133 41.053 3.61878 41.1763 3.61878C41.296 3.62454 41.4106 3.67205 41.4984 3.75339L46.2828 8.79969C46.7507 9.28919 47.3492 9.63547 48.0094 9.79815C48.6688 9.96084 49.3616 9.93277 50.0058 9.71825L56.5994 7.4578C56.7118 7.40741 56.841 7.40741 56.9527 7.4578C57.06 7.51611 57.1362 7.61833 57.1609 7.73638L58.7728 14.496C58.9324 15.1503 59.2763 15.7464 59.7645 16.2143C60.2527 16.6822 60.8643 17.0025 61.5288 17.1379L68.393 18.5107C68.5156 18.5337 68.6222 18.6093 68.6839 18.7173C68.7274 18.8267 68.7274 18.9483 68.6839 19.0578L66.6665 25.7035C66.4706 26.3492 66.4641 27.0367 66.6483 27.686C66.8326 28.3354 67.1997 28.9184 67.7067 29.3676L72.9067 33.9604V33.9597C72.9974 34.0418 73.0489 34.1584 73.0489 34.28C73.0489 34.4017 72.9974 34.5176 72.9067 34.5997L67.8106 39.3572C67.3288 39.8352 66.9966 40.4406 66.853 41.1014C66.7093 41.7622 66.7601 42.4497 66.9995 43.0825L69.2353 49.6563C69.2818 49.7686 69.2818 49.8946 69.2353 50.0076C69.186 50.0875 69.1185 50.1545 69.038 50.2034C68.882 50.2034 65.0858 50.8952 62.5278 51.5863C61.4657 51.8634 60.5568 52.5458 60.0004 53.4853L59.6362 54.0943C59.1669 54.8732 58.9623 55.781 59.0537 56.6845V56.9012L50.6299 59.5121C48.4043 56.5088 42.7573 55.6523 35.9969 54.6414L35.9967 54.6412Z" fill="black"/>
</svg>
