<svg width="67" height="89" viewBox="0 0 67 89" fill="none" xmlns="http://www.w3.org/2000/svg">
<path d="M35.188 34.5071C34.1106 34.3953 33.0238 34.3953 31.9464 34.5071C24.798 35.0711 18.4563 39.3101 15.2018 45.6989C11.9472 52.0888 12.2475 59.7105 15.9942 65.824C19.7409 71.9373 26.3959 75.6642 33.5666 75.6642C40.7372 75.6642 47.3922 71.9376 51.1402 65.824C54.8869 59.7108 55.1871 52.0891 51.9326 45.6989C48.6768 39.3101 42.3363 35.0711 35.1879 34.5071H35.188ZM46.6492 66.0215C42.9603 70.425 37.3109 72.687 31.6037 72.0464C25.8952 71.4059 20.8888 67.9476 18.2679 62.8351C15.6481 57.7237 15.7634 51.6397 18.5752 46.6321C21.387 41.6232 26.5218 38.357 32.2501 37.9331C32.6775 37.9108 33.1061 37.9108 33.5335 37.9331C33.9774 37.9096 34.4225 37.9096 34.8664 37.9331C40.4299 38.3653 45.433 41.4843 48.2694 46.2897C49.839 48.9225 50.662 51.9333 50.6491 54.9994C50.6455 59.0347 49.2173 62.9379 46.615 66.0215H46.6492Z" fill="#6BB8CB"/>
<path d="M40.5713 47.9116L30.0213 58.4616L26.4253 54.8655C25.7494 54.1897 24.6544 54.1897 23.9774 54.8655C23.3015 55.5414 23.3015 56.6376 23.9774 57.3135L28.805 62.1411H28.8062C29.1241 62.4767 29.5668 62.6663 30.0296 62.6663C30.4923 62.6663 30.9351 62.4767 31.253 62.1411L43.0687 50.3254H43.0698C43.7457 49.6496 43.7457 48.5534 43.0698 47.8775C42.3928 47.2016 41.2978 47.2016 40.6219 47.8775L40.5713 47.9116Z" fill="#6BB8CB"/>
<path d="M63.055 47.4896L61.8398 46.4605C60.242 45.1288 59.4025 43.0966 59.5944 41.0254L59.7299 39.4382C59.9088 37.1917 59.313 34.9521 58.0425 33.0917L57.9413 32.9233C56.951 31.5127 55.6087 30.3882 54.0474 29.663C52.4849 28.9365 50.76 28.6351 49.0443 28.787L47.6596 28.9048L53.315 6.75911C53.4375 6.3152 53.3739 5.84068 53.1372 5.44623C52.9017 5.05061 52.5143 4.7692 52.0669 4.6656L36.7236 0.765715H36.7224C36.2773 0.645614 35.8005 0.71273 35.406 0.951753C35.008 1.18371 34.7207 1.56757 34.6124 2.01498L33.4986 6.48818L32.3505 1.9984C32.2422 1.55096 31.9561 1.16595 31.5569 0.935172C31.1625 0.69497 30.6868 0.627867 30.2405 0.749134L14.9301 4.6653C14.4826 4.76891 14.0953 5.05031 13.8598 5.44594C13.6231 5.84038 13.5595 6.31489 13.682 6.75881L19.303 28.9057L17.9183 28.7879V28.7867C16.2004 28.6337 14.4718 28.9351 12.9083 29.6604C11.3434 30.3869 9.9976 31.5114 9.00505 32.9231L8.90379 33.0914C7.63095 34.9507 7.03518 37.1915 7.21649 39.438L7.3519 41.0417C7.54264 43.1211 6.69605 45.1604 5.09 46.4946L3.89134 47.5072C1.65417 49.364 0.360107 52.1205 0.360107 55.0275C0.360107 57.9335 1.65414 60.6899 3.89134 62.5467L5.10646 63.5758V63.5769C6.70662 64.9134 7.54734 66.9526 7.35186 69.0286L7.21645 70.6158C6.95388 73.5135 7.99122 76.377 10.0494 78.4342C12.1064 80.4912 14.9699 81.5299 17.8679 81.2672L19.4715 81.1318C21.5509 80.9375 23.5927 81.7841 24.9232 83.3937L25.9358 84.5923C27.7927 86.8295 30.5492 88.1236 33.4561 88.1236C36.3631 88.1236 39.1197 86.8295 40.9765 84.5923L42.0056 83.3772C43.3385 81.7712 45.3813 80.9305 47.4584 81.1318L49.0456 81.2672H49.0445C51.9422 81.5298 54.8069 80.4913 56.8638 78.4343C58.9208 76.3773 59.9583 73.5137 59.6956 70.6158L59.5602 69.0121H59.5614C59.3694 66.9327 60.216 64.8934 61.8232 63.5593L63.0219 62.5467C65.2638 60.6898 66.5625 57.93 66.5625 55.0179C66.5625 52.1058 65.2637 49.3462 63.0219 47.4891L63.055 47.4896ZM37.5665 4.53L49.5519 7.58559L44.285 28.3477L44.0825 28.2464C43.8117 28.1087 43.5526 27.9509 43.3054 27.7743L42.9674 27.5211C42.6283 27.255 42.3175 26.9559 42.0396 26.6262L41.027 25.4276C39.2431 23.2611 36.608 21.9741 33.802 21.9C33.5948 21.8764 33.3852 21.8764 33.178 21.9L37.5665 4.53ZM29.4466 4.53L31.725 13.5105L29.3453 22.8617C28.0384 23.4634 26.8844 24.3512 25.9696 25.4615L24.9405 26.6766C24.3377 27.4031 23.5747 27.9812 22.7116 28.3651L17.4448 7.58522L29.4466 4.53ZM60.8434 59.8964L59.6447 60.909V60.9102C57.1626 62.9755 55.8615 66.1346 56.1677 69.3502L56.3032 70.9374V70.9362C56.4762 72.8155 55.8051 74.6745 54.471 76.0087C53.137 77.3428 51.2777 78.0139 49.3998 77.8408L47.8126 77.7054C44.5982 77.4016 41.4401 78.7027 39.3726 81.1824L38.3435 82.3975H38.3423C37.1401 83.8516 35.3516 84.6947 33.464 84.6947C31.5777 84.6947 29.7893 83.8516 28.5857 82.3975L27.5731 81.1988C25.7186 78.964 22.9657 77.6712 20.0621 77.6712H19.1672L17.58 77.8066C15.7067 77.9691 13.8579 77.2932 12.5311 75.9604C11.2052 74.6275 10.5376 72.7755 10.7095 70.9033L10.8449 69.3161C11.1511 66.1004 9.84997 62.9424 7.36795 60.8761L6.15283 59.847V59.8458C4.69868 58.6436 3.85561 56.8551 3.85561 54.9675C3.85561 53.0812 4.69868 51.2928 6.15283 50.0892L7.35149 49.0765C9.83357 47.0101 11.1347 43.8522 10.8285 40.6365L10.6931 39.0493C10.5588 37.5587 10.9592 36.0692 11.8246 34.8471L11.9094 34.7117H11.9082C13.2363 32.9361 15.3876 31.9718 17.5964 32.1625L19.166 32.2979H19.1672C20.0291 32.3827 20.8992 32.3427 21.7493 32.1802H21.9189C24.136 31.7528 26.1319 30.5577 27.5565 28.8045L28.5856 27.5717C29.305 26.6851 30.2576 26.0187 31.3373 25.6478C32.0379 25.4405 32.7679 25.3499 33.498 25.3769H33.7005C34.3799 25.3852 35.0522 25.5053 35.6927 25.7314C36.7654 26.1046 37.7132 26.771 38.4268 27.6565L39.4394 28.8552C40.9006 30.6402 42.9565 31.8388 45.2302 32.2309H45.3137C46.1368 32.3851 46.9775 32.4251 47.8123 32.3486L49.416 32.2132C51.6284 32.0024 53.7891 32.9703 55.1043 34.7624L55.189 34.8978C56.0568 36.1247 56.4583 37.6212 56.3194 39.1178L56.184 40.705L56.1852 40.7038C55.8779 43.9194 57.1801 47.0784 59.6621 49.1438L60.8773 50.1564V50.1576C62.3314 51.3598 63.1733 53.1483 63.1733 55.0359C63.1733 56.9222 62.3314 58.7106 60.8773 59.9142L60.8434 59.8964Z" fill="#6BB8CB"/>
</svg>
