<svg width="76" height="76" viewBox="0 0 76 76" fill="none" xmlns="http://www.w3.org/2000/svg">
<path d="M66.5137 2.61478C64.188 2.68831 61.9044 3.25845 59.8168 4.28662C53.3723 7.45858 48.1128 12.6108 44.8083 18.989C44.6444 19.3066 44.6131 19.6772 44.7216 20.0184C44.8306 20.3595 45.0705 20.6439 45.3887 20.8079C46.0511 21.1502 46.8659 20.8904 47.2082 20.2281C50.089 14.6703 54.5886 10.117 60.1122 7.17104L61.4833 8.47886L17.9979 54.078L15.3136 61.6874H15.3142C15.2057 61.9887 15.2853 62.3256 15.5167 62.5468C15.7481 62.768 16.088 62.8325 16.3846 62.7107L23.8572 59.6677L75.8222 5.17711H75.8216C73.048 3.40468 69.8038 2.51152 66.5139 2.61458L66.5137 2.61478ZM67.2942 5.30938C68.6611 5.3371 70.0153 5.56974 71.3129 6.00006L58.9995 18.9095L57.0431 17.0478L65.3016 8.38917L62.786 5.98987H62.7854C64.2396 5.51134 65.7638 5.28112 67.294 5.30944L67.2942 5.30938ZM55.1809 18.9992L57.1318 20.8608L25.9399 53.5771L23.9836 51.7105L55.1809 18.9992ZM22.1221 53.6672L24.0735 55.5288L22.3071 57.385L19.2593 58.6241L20.3508 55.5232L22.1221 53.6672Z" fill="black"/>
<path d="M21.7786 32.8016H35.2786V30.1016H21.7786V32.8016Z" fill="black"/>
<path d="M12.6757 62.9536L11.4848 64.1445L8.78478 61.4445C8.25743 60.9178 7.40284 60.9178 6.87549 61.4445C6.34814 61.9718 6.34814 62.8264 6.87549 63.3538L10.5302 67.0085C10.7833 67.2616 11.1263 67.4039 11.4849 67.4039C11.8428 67.4039 12.1858 67.2616 12.4389 67.0085L14.5844 64.863H14.585C15.1117 64.3357 15.1111 63.4811 14.5844 62.9543C14.057 62.427 13.2031 62.427 12.6757 62.9537L12.6757 62.9536Z" fill="black"/>
<path d="M21.7786 16.6V13.9H37.9786V16.6H21.7786Z" fill="black"/>
<path d="M6.87453 14.7547L10.5293 18.4095C10.7824 18.6626 11.1253 18.8048 11.4839 18.8048C11.8419 18.8048 12.1848 18.6626 12.4379 18.4095L18.7927 12.0547C19.3146 11.5268 19.3116 10.6764 18.7872 10.1515C18.2623 9.62654 17.4119 9.62412 16.884 10.1454L11.484 15.5454L8.78397 12.8454C8.25541 12.3241 7.40564 12.3265 6.8807 12.8515C6.35577 13.3764 6.35275 14.2262 6.87467 14.7547H6.87453Z" fill="black"/>
<path d="M6.87456 30.9548L10.5293 34.6095C10.7824 34.8626 11.1253 35.0049 11.4839 35.0049C11.8419 35.0049 12.1848 34.8627 12.438 34.6095L18.7927 28.2548C19.3146 27.7269 19.3116 26.8765 18.7873 26.3515C18.2623 25.8266 17.4119 25.8242 16.884 26.3455L11.484 31.7455L8.78399 29.0455C8.25664 28.5188 7.40205 28.5194 6.87532 29.0461C6.34797 29.5729 6.34797 30.4275 6.87472 30.9548L6.87456 30.9548Z" fill="black"/>
<path d="M6.87453 47.1548L10.5293 50.8095C10.7824 51.0626 11.1253 51.2048 11.4839 51.2048C11.8419 51.2048 12.1848 51.0626 12.4379 50.8095L18.7927 44.4548C19.3146 43.9268 19.3116 43.0764 18.7872 42.5515C18.2623 42.0266 17.4119 42.0241 16.884 42.5455L11.484 47.9455L8.78397 45.2455C8.25541 44.7241 7.40564 44.7266 6.8807 45.2515C6.35577 45.7764 6.35275 46.6262 6.87467 47.1548H6.87453Z" fill="black"/>
<path d="M0.178467 0.400024V76H37.187L54.1785 59.0101V31.7879L51.4785 34.6198V57.1008H35.2785V73.3008H2.87847V3.1008H51.4785V6.49693C52.3463 5.77673 53.2474 5.09752 54.1785 4.46113V0.400333L0.178467 0.400024ZM37.9785 59.8H49.5698L37.9785 71.3914V59.8Z" fill="black"/>
</svg>
