<svg width="84" height="91" viewBox="0 0 84 91" fill="none" xmlns="http://www.w3.org/2000/svg">
<path d="M82.6159 76.0227H78.1953V42.9084C78.1936 41.6687 77.7008 40.4803 76.8251 39.6047C75.9485 38.7281 74.7611 38.2345 73.5215 38.2336H55.6372C54.9486 38.2336 54.3897 38.7917 54.3897 39.4811C54.3897 40.1706 54.9486 40.7295 55.6372 40.7295H73.5215C74.7237 40.7312 75.6987 41.7062 75.6995 42.9084V76.0228H50.0152C49.4407 76.0228 48.9401 76.4154 48.8035 76.9734L48.04 80.0925H35.9605L35.197 76.9734C35.0603 76.4154 34.5598 76.0228 33.9852 76.0228H8.30094V42.9084C8.30181 41.7062 9.27681 40.7312 10.479 40.7295H27.7957C28.4852 40.7295 29.044 40.1706 29.044 39.4811C29.044 38.7917 28.4852 38.2336 27.7957 38.2336H10.479C9.23937 38.2345 8.05187 38.7281 7.17538 39.6047C6.29961 40.4805 5.8069 41.6688 5.80516 42.9084V76.0227H1.38457C1.05289 76.0227 0.736008 76.1542 0.501852 76.3883C0.267674 76.6225 0.13623 76.9403 0.13623 77.271V80.4276C0.139712 83.1366 1.21745 85.7343 3.13255 87.6495C5.04861 89.5647 7.6454 90.6425 10.3545 90.6458H73.6459C76.3549 90.6423 78.9519 89.5646 80.8678 87.6495C82.783 85.7343 83.8608 83.1366 83.8641 80.4276V77.271C83.8641 76.9402 83.7327 76.6225 83.4985 76.3883C83.2643 76.1541 82.9474 76.0227 82.6158 76.0227H82.6159ZM81.3675 80.4277H81.3684C81.3658 82.4752 80.5518 84.4382 79.1042 85.8859C77.6556 87.3336 75.6934 88.1475 73.646 88.1493H10.3545C8.30704 88.1475 6.3449 87.3335 4.89633 85.8859C3.44862 84.4382 2.63477 82.4751 2.6321 80.4277V78.5195H33.0053L33.7688 81.6386V81.6377C33.9054 82.1957 34.406 82.5883 34.9806 82.5883H49.0188C49.5933 82.5883 50.0939 82.1957 50.2305 81.6377L50.994 78.5186L81.3672 78.5195L81.3675 80.4277Z" fill="black"/>
<path d="M57.8522 28.2065C58.2579 29.6795 59.3556 30.8625 60.7937 31.3778C62.2318 31.893 63.8301 31.6764 65.0792 30.7971C66.3293 29.9179 67.0719 28.4859 67.0719 26.958C67.0719 25.4302 66.3293 23.9982 65.0792 23.1188C63.83 22.2396 62.2318 22.0228 60.7937 22.539C59.3556 23.0544 58.2578 24.2374 57.8522 25.7103H49.4795C49.1487 25.7103 48.8309 25.8417 48.5968 26.075C48.3626 26.3092 48.2311 26.6269 48.232 26.9577V62.7954H43.2142V9.35425C44.6862 8.94858 45.8693 7.85083 46.3854 6.41276C46.9008 4.97464 46.684 3.37544 45.8048 2.12632C44.9255 0.877096 43.4935 0.133667 41.9656 0.133667C40.4377 0.133667 39.0058 0.877096 38.1264 2.12632C37.2472 3.37555 37.0304 4.97466 37.5466 6.41276C38.062 7.85088 39.2451 8.94865 40.7179 9.35425V62.7954H35.7001V18.6853C35.7001 18.3545 35.5686 18.0367 35.3344 17.8034C35.1003 17.5693 34.7825 17.4378 34.4517 17.4378H26.079C25.6724 15.9649 24.5756 14.7818 23.1375 14.2666C21.6994 13.7513 20.1002 13.9671 18.8511 14.8463C17.6018 15.7256 16.8584 17.1585 16.8584 18.6855C16.8584 20.2133 17.6018 21.6453 18.8511 22.5247C20.1003 23.4048 21.6994 23.6207 23.1375 23.1053C24.5756 22.59 25.6725 21.4069 26.079 19.9341H33.2044L33.2035 62.7939H27.7948H27.7956C27.1062 62.7939 26.5473 63.3528 26.5473 64.0423C26.5473 64.7318 27.1062 65.2898 27.7956 65.2898H58.414C59.1035 65.2898 59.6615 64.7318 59.6615 64.0423C59.6615 63.3528 59.1035 62.7939 58.414 62.7939H50.7263V28.2043L57.8522 28.2065ZM62.3564 24.76C63.2461 24.76 64.0478 25.2954 64.3882 26.1172C64.7286 26.9381 64.5406 27.8844 63.9112 28.5129C63.2826 29.1414 62.3372 29.3295 61.5154 28.9899C60.6937 28.6496 60.1583 27.8478 60.1583 26.9581C60.1592 25.7446 61.1429 24.7609 62.3564 24.76L62.3564 24.76ZM39.7676 4.84997C39.7676 3.96115 40.3029 3.1594 41.1247 2.81901C41.9457 2.47864 42.8919 2.66666 43.5204 3.29518C44.149 3.92458 44.337 4.86998 43.9966 5.69179C43.6571 6.51271 42.8554 7.04895 41.9657 7.04895C40.7521 7.0472 39.7684 6.06349 39.7676 4.84997H39.7676ZM21.5742 20.8852C20.6845 20.8852 19.8836 20.3498 19.5432 19.5281C19.2029 18.7063 19.3909 17.7609 20.0194 17.1323C20.6479 16.5029 21.5942 16.3149 22.416 16.6553C23.2369 16.9957 23.7732 17.7974 23.7732 18.6863C23.7714 19.9007 22.7877 20.8844 21.5742 20.8852V20.8852Z" fill="black"/>
</svg>
