<svg width="76" height="76" viewBox="0 0 76 76" fill="none" xmlns="http://www.w3.org/2000/svg">
<path d="M66.5135 2.61478C64.1878 2.68831 61.9042 3.25845 59.8165 4.28662C53.372 7.45858 48.1126 12.6108 44.8081 18.989C44.6442 19.3066 44.6128 19.6772 44.7213 20.0184C44.8304 20.3595 45.0703 20.6439 45.3885 20.8079C46.0508 21.1502 46.8656 20.8904 47.208 20.2281C50.0888 14.6703 54.5884 10.117 60.112 7.17104L61.4831 8.47886L17.9976 54.078L15.3134 61.6874H15.314C15.2055 61.9887 15.285 62.3256 15.5165 62.5468C15.7479 62.768 16.0878 62.8325 16.3843 62.7107L23.857 59.6677L75.822 5.17711H75.8214C73.0478 3.40468 69.8036 2.51152 66.5136 2.61458L66.5135 2.61478ZM67.2939 5.30938C68.6608 5.3371 70.0151 5.56974 71.3126 6.00006L58.9992 18.9095L57.0429 17.0478L65.3013 8.38917L62.7857 5.98987H62.7851C64.2394 5.51134 65.7636 5.28112 67.2938 5.30944L67.2939 5.30938ZM55.1807 18.9992L57.1316 20.8608L25.9397 53.5771L23.9833 51.7105L55.1807 18.9992ZM22.1219 53.6672L24.0733 55.5288L22.3069 57.385L19.2591 58.6241L20.3505 55.5232L22.1219 53.6672Z" fill="#fff"/>
<path d="M21.7783 32.8016H35.2783V30.1016H21.7783V32.8016Z" fill="#fff"/>
<path d="M12.6754 62.9536L11.4845 64.1445L8.78453 61.4445C8.25718 60.9178 7.4026 60.9178 6.87525 61.4445C6.3479 61.9718 6.3479 62.8264 6.87525 63.3538L10.53 67.0085C10.7831 67.2616 11.126 67.4039 11.4846 67.4039C11.8426 67.4039 12.1855 67.2616 12.4387 67.0085L14.5841 64.863H14.5848C15.1115 64.3357 15.1109 63.4811 14.5841 62.9543C14.0568 62.427 13.2028 62.427 12.6755 62.9537L12.6754 62.9536Z" fill="#fff"/>
<path d="M21.7783 16.6V13.9H37.9783V16.6H21.7783Z" fill="#fff"/>
<path d="M6.87429 14.7547L10.529 18.4095C10.7821 18.6626 11.1251 18.8048 11.4837 18.8048C11.8416 18.8048 12.1846 18.6626 12.4377 18.4095L18.7924 12.0547C19.3143 11.5268 19.3113 10.6764 18.787 10.1515C18.2621 9.62654 17.4117 9.62412 16.8837 10.1454L11.4837 15.5454L8.78372 12.8454C8.25517 12.3241 7.40539 12.3265 6.88045 12.8515C6.35553 13.3764 6.3525 14.2262 6.87443 14.7547H6.87429Z" fill="#fff"/>
<path d="M6.87432 30.9548L10.529 34.6095C10.7822 34.8626 11.1251 35.0049 11.4837 35.0049C11.8417 35.0049 12.1846 34.8627 12.4377 34.6095L18.7924 28.2548C19.3144 27.7269 19.3113 26.8765 18.787 26.3515C18.2621 25.8266 17.4117 25.8242 16.8837 26.3455L11.4837 31.7455L8.78375 29.0455C8.2564 28.5188 7.40181 28.5194 6.87508 29.0461C6.34773 29.5729 6.34773 30.4275 6.87448 30.9548L6.87432 30.9548Z" fill="#fff"/>
<path d="M6.87429 47.1548L10.529 50.8095C10.7821 51.0626 11.1251 51.2048 11.4837 51.2048C11.8416 51.2048 12.1846 51.0626 12.4377 50.8095L18.7924 44.4548C19.3143 43.9268 19.3113 43.0764 18.787 42.5515C18.2621 42.0266 17.4117 42.0241 16.8837 42.5455L11.4837 47.9455L8.78372 45.2455C8.25517 44.7241 7.40539 44.7266 6.88045 45.2515C6.35553 45.7764 6.3525 46.6262 6.87443 47.1548H6.87429Z" fill="#fff"/>
<path d="M0.178345 0.400024V76H37.1869L54.1783 59.0101V31.7879L51.4783 34.6198V57.1008H35.2783V73.3008H2.87834V3.1008H51.4783V6.49693C52.3462 5.77673 53.2472 5.09752 54.1783 4.46113V0.400333L0.178345 0.400024ZM37.9783 59.8H49.5697L37.9783 71.3914V59.8Z" fill="#fff"/>
</svg>
