<svg width="63" height="74" viewBox="0 0 63 74" fill="none" xmlns="http://www.w3.org/2000/svg">
<path d="M60.0501 0.0899254H2.70325C1.3794 0.0899254 0.303711 1.15687 0.303711 2.46841V71.5663C0.303711 72.8785 1.3801 73.9448 2.70325 73.9448H41.1164C41.2659 73.9448 41.4153 73.9145 41.554 73.8578C41.6819 73.8048 41.7932 73.7266 41.8925 73.6339C41.9014 73.6251 41.9141 73.6226 41.923 73.6137L62.1173 53.5692C62.2134 53.4739 62.2827 53.3623 62.3374 53.245C62.3533 53.2097 62.3622 53.175 62.3749 53.1391C62.4093 53.042 62.4284 52.9449 62.4354 52.8421C62.4367 52.8175 62.45 52.7967 62.45 52.7708L62.4506 2.46809C62.4506 1.15585 61.3736 0.0895996 60.0498 0.0895996L60.0501 0.0899254ZM2.5811 71.5689V2.46938C2.5811 2.40254 2.63454 2.35083 2.7007 2.35083H60.0492C60.1179 2.35083 60.1688 2.40254 60.1688 2.46938V51.6421H42.375C41.0512 51.6421 39.9755 52.7091 39.9755 54.0206V71.6874H2.70239C2.63496 71.6874 2.58152 71.6344 2.58152 71.5688L2.5811 71.5689ZM42.2547 70.0864V54.0223C42.2547 53.9555 42.3082 53.9038 42.3743 53.9038H58.5589L42.2547 70.0864Z" fill="black"/>
<path d="M31.6104 16.4282L33.8337 14.8272L36.0564 16.4282L35.2071 13.8372L37.4311 12.2361H34.6829L33.8336 9.64502L32.9844 12.2361H30.2368L32.4595 13.8372L31.6104 16.4282Z" fill="black"/>
<path d="M41.1654 16.4282L43.3881 14.8272L45.6114 16.4282L44.7622 13.8372L46.9848 12.2361H44.2373L43.388 9.64502L42.5387 12.2361H39.7905L42.0145 13.8372L41.1654 16.4282Z" fill="black"/>
<path d="M50.7184 16.4282L52.9423 14.8272L55.1657 16.4282L54.3164 13.8372L56.5391 12.2361H53.7902L52.9422 9.64502L52.0929 12.2361H49.3447L51.5674 13.8372L50.7184 16.4282Z" fill="black"/>
<path d="M52.5067 22.377H36.0516C35.4212 22.377 34.9116 22.882 34.9116 23.507C34.9116 24.1319 35.4212 24.637 36.0516 24.637H52.5083C53.1388 24.637 53.6483 24.1319 53.6483 23.507C53.6477 22.882 53.1381 22.377 52.5077 22.377H52.5067Z" fill="black"/>
<path d="M36.0516 29.157H44.0316C44.6621 29.157 45.1716 28.6519 45.1716 28.027C45.1716 27.4021 44.6621 26.897 44.0316 26.897H36.0516C35.4212 26.897 34.9116 27.4021 34.9116 28.027C34.9116 28.6519 35.4225 29.157 36.0516 29.157Z" fill="black"/>
<path d="M52.9415 31.4169H36.0516C35.4212 31.4169 34.9116 31.922 34.9116 32.5469C34.9116 33.1718 35.4212 33.6769 36.0516 33.6769H52.9399C53.5703 33.6769 54.0799 33.1718 54.0799 32.5469C54.0799 31.922 53.5716 31.4169 52.9412 31.4169H52.9415Z" fill="black"/>
<path d="M52.9415 35.9047H36.0516C35.4212 35.9047 34.9116 36.4098 34.9116 37.0347C34.9116 37.6596 35.4212 38.1647 36.0516 38.1647H52.9399C53.5703 38.1647 54.0799 37.6596 54.0799 37.0347C54.0799 36.4098 53.5716 35.9047 52.9412 35.9047H52.9415Z" fill="black"/>
<path d="M38.5694 41.5239C38.5694 40.899 38.0598 40.3939 37.4294 40.3939H7.55162C6.92118 40.3939 6.41162 40.899 6.41162 41.5239C6.41162 42.1488 6.92118 42.6539 7.55162 42.6539H37.4294C38.0592 42.6539 38.5688 42.1488 38.5688 41.5239H38.5694Z" fill="black"/>
<path d="M52.9412 40.3939H41.8021C41.1717 40.3939 40.6621 40.899 40.6621 41.5239C40.6621 42.1488 41.1717 42.6539 41.8021 42.6539H52.9412C53.5716 42.6539 54.0812 42.1488 54.0812 41.5239C54.0812 40.899 53.5716 40.3939 52.9412 40.3939Z" fill="black"/>
<path d="M52.9414 44.8833H23.4056C22.7752 44.8833 22.2656 45.3884 22.2656 46.0133C22.2656 46.6382 22.7752 47.1433 23.4056 47.1433H52.9414C53.5718 47.1433 54.0814 46.6382 54.0814 46.0133C54.0814 45.3884 53.5718 44.8833 52.9414 44.8833Z" fill="black"/>
<path d="M18.6534 47.1433C19.2839 47.1433 19.7934 46.6382 19.7934 46.0133C19.7934 45.3884 19.2839 44.8833 18.6534 44.8833H7.55309C6.92265 44.8833 6.41309 45.3884 6.41309 46.0133C6.41309 46.6382 6.92265 47.1433 7.55309 47.1433H18.6534Z" fill="black"/>
<path d="M52.5064 26.897H48.5902C47.9598 26.897 47.4502 27.4021 47.4502 28.027C47.4502 28.6519 47.9598 29.157 48.5902 29.157H52.5064C53.1369 29.157 53.6464 28.6519 53.6464 28.027C53.6464 27.4021 53.1369 26.897 52.5064 26.897Z" fill="black"/>
<path d="M17.6927 24.6449C21.7247 24.6449 25.0059 21.0084 25.0059 16.5394C25.0059 12.0705 21.7252 8.43396 17.6927 8.43396C13.6606 8.43396 10.3794 12.0705 10.3794 16.5394C10.3794 21.0084 13.6602 24.6449 17.6927 24.6449ZM17.6927 10.6953C20.4689 10.6953 22.7259 13.3165 22.7259 16.5407C22.7259 19.765 20.4689 22.3862 17.6927 22.3862C14.9164 22.3862 12.6594 19.765 12.6594 16.5407C12.6594 13.3165 14.9164 10.6953 17.6927 10.6953Z" fill="black"/>
<path d="M30.2245 34.9183C30.2245 29.7576 24.6033 25.5587 17.6935 25.5587C10.7841 25.5587 5.16357 29.7578 5.16357 34.9183V36.0483H30.224L30.2245 34.9183Z" fill="black"/>
<path d="M21.4416 52.0104L13.1365 59.1939L9.28639 55.5397C8.83409 55.109 8.11332 55.1241 7.67437 55.575C7.2386 56.0246 7.25514 56.7403 7.70999 57.1729L12.312 61.5414C12.5309 61.7508 12.8146 61.8542 13.0996 61.8542C13.3661 61.8542 13.6339 61.7615 13.8483 61.5749L22.9384 53.7109C23.4123 53.3016 23.4619 52.5878 23.0478 52.1174C22.6356 51.6476 21.9148 51.5978 21.4415 52.0102L21.4416 52.0104Z" fill="black"/>
</svg>
