<svg width="84" height="91" viewBox="0 0 84 91" fill="none" xmlns="http://www.w3.org/2000/svg">
<path d="M82.6157 76.0228H78.1951V42.9085C78.1933 41.6688 77.7006 40.4805 76.8249 39.6048C75.9482 38.7282 74.7608 38.2346 73.5212 38.2338H55.6369C54.9483 38.2338 54.3894 38.7918 54.3894 39.4813C54.3894 40.1707 54.9483 40.7296 55.6369 40.7296H73.5212C74.7234 40.7313 75.6984 41.7063 75.6993 42.9086V76.0229H50.015C49.4405 76.0229 48.9399 76.4155 48.8032 76.9735L48.0398 80.0926H35.9602L35.1968 76.9735C35.0601 76.4155 34.5595 76.0229 33.985 76.0229H8.30069V42.9086C8.30156 41.7063 9.27656 40.7313 10.4788 40.7296H27.7954C28.4849 40.7296 29.0438 40.1707 29.0438 39.4813C29.0438 38.7918 28.4849 38.2338 27.7954 38.2338H10.4788C9.23912 38.2346 8.05163 38.7282 7.17513 39.6048C6.29937 40.4806 5.80665 41.6689 5.80491 42.9085V76.0228H1.38432C1.05264 76.0228 0.735764 76.1543 0.501608 76.3884C0.26743 76.6226 0.135986 76.9404 0.135986 77.2712V80.4277C0.139468 83.1368 1.2172 85.7344 3.1323 87.6496C5.04836 89.5648 7.64516 90.6426 10.3542 90.6459H73.6456C76.3547 90.6424 78.9516 89.5647 80.8675 87.6496C82.7827 85.7344 83.8605 83.1368 83.8639 80.4277V77.2712C83.8639 76.9403 83.7324 76.6226 83.4983 76.3884C83.2641 76.1543 82.9472 76.0228 82.6155 76.0228H82.6157ZM81.3673 80.4278H81.3682C81.3656 82.4753 80.5516 84.4384 79.104 85.886C77.6554 87.3337 75.6931 88.1476 73.6457 88.1494H10.3543C8.3068 88.1476 6.34465 87.3337 4.89608 85.886C3.44838 84.4383 2.63453 82.4752 2.63186 80.4278V78.5196H33.0051L33.7685 81.6387V81.6378C33.9052 82.1959 34.4058 82.5885 34.9803 82.5885H49.0185C49.5931 82.5885 50.0936 82.1959 50.2303 81.6378L50.9938 78.5187L81.367 78.5196L81.3673 80.4278Z" fill="#6BB8CB"/>
<path d="M57.8517 28.2066C58.2574 29.6795 59.3551 30.8626 60.7932 31.3778C62.2313 31.8931 63.8296 31.6764 65.0788 30.7972C66.3288 29.9179 67.0714 28.4859 67.0714 26.958C67.0714 25.4302 66.3288 23.9982 65.0788 23.1189C63.8295 22.2396 62.2313 22.0228 60.7932 22.5391C59.3551 23.0544 58.2573 24.2375 57.8517 25.7103H49.479C49.1482 25.7103 48.8304 25.8418 48.5963 26.0751C48.3621 26.3093 48.2306 26.627 48.2315 26.9578V62.7954H43.2137V9.35431C44.6857 8.94864 45.8688 7.85089 46.3849 6.41282C46.9003 4.9747 46.6835 3.3755 45.8043 2.12638C44.925 0.877157 43.493 0.133728 41.9651 0.133728C40.4372 0.133728 39.0053 0.877157 38.1259 2.12638C37.2467 3.37561 37.0299 4.97472 37.5462 6.41282C38.0615 7.85094 39.2446 8.94871 40.7174 9.35431V62.7954H35.6996V18.6853C35.6996 18.3545 35.5681 18.0368 35.334 17.8035C35.0998 17.5693 34.782 17.4379 34.4512 17.4379H26.0785C25.672 15.9649 24.5751 14.7819 23.137 14.2666C21.6989 13.7514 20.0997 13.9671 18.8506 14.8464C17.6013 15.7256 16.8579 17.1585 16.8579 18.6856C16.8579 20.2134 17.6013 21.6453 18.8506 22.5247C20.0998 23.4048 21.6989 23.6207 23.137 23.1054C24.5751 22.59 25.672 21.407 26.0785 19.9341H33.2039L33.203 62.794H27.7943H27.7952C27.1057 62.794 26.5468 63.3529 26.5468 64.0424C26.5468 64.7318 27.1057 65.2898 27.7952 65.2898H58.4135C59.103 65.2898 59.661 64.7318 59.661 64.0424C59.661 63.3529 59.103 62.794 58.4135 62.794H50.7258V28.2043L57.8517 28.2066ZM62.3559 24.7601C63.2456 24.7601 64.0473 25.2955 64.3877 26.1172C64.7281 26.9382 64.5401 27.8844 63.9107 28.513C63.2822 29.1415 62.3367 29.3295 61.515 28.99C60.6932 28.6496 60.1578 27.8479 60.1578 26.9582C60.1587 25.7446 61.1424 24.7609 62.3559 24.7601L62.3559 24.7601ZM39.7671 4.85003C39.7671 3.96121 40.3025 3.15946 41.1242 2.81907C41.9452 2.4787 42.8914 2.66672 43.52 3.29524C44.1485 3.92464 44.3365 4.87004 43.9961 5.69185C43.6566 6.51277 42.8549 7.04901 41.9652 7.04901C40.7517 7.04727 39.7679 6.06355 39.7671 4.85003H39.7671ZM21.5737 20.8853C20.684 20.8853 19.8831 20.3499 19.5427 19.5281C19.2024 18.7063 19.3904 17.7609 20.0189 17.1324C20.6474 16.503 21.5937 16.315 22.4155 16.6554C23.2364 16.9957 23.7727 17.7975 23.7727 18.6863C23.7709 19.9007 22.7872 20.8844 21.5737 20.8853V20.8853Z" fill="#6BB8CB"/>
</svg>
