<svg width="71" height="73" viewBox="0 0 71 73" fill="none" xmlns="http://www.w3.org/2000/svg">
<path d="M48.2038 30.4127C50.8188 30.4153 53.2858 29.2019 54.8789 27.1288C56.4727 25.0562 57.0117 22.3603 56.3374 19.8336C55.6624 17.3078 53.8517 15.2392 51.4369 14.2368C49.0222 13.2344 46.2786 13.4118 44.0132 14.717C41.7478 16.0228 40.2183 18.3075 39.8754 20.8997C39.5319 23.4912 40.4138 26.0955 42.2614 27.9458C43.8337 29.5281 45.9732 30.416 48.2038 30.4128L48.2038 30.4127ZM44.287 18.0959C45.3236 17.0579 46.7299 16.4747 48.1971 16.474C49.6644 16.4733 51.0713 17.0552 52.1091 18.0925C53.1464 19.1291 53.7297 20.5361 53.7297 22.0031C53.7297 23.4702 53.1464 24.8773 52.1091 25.9138C51.0712 26.951 49.6642 27.5336 48.1971 27.533C46.73 27.5323 45.3237 26.9484 44.287 25.9104C43.2538 24.8725 42.6745 23.4676 42.6745 22.0031C42.6745 20.5385 43.2538 19.1337 44.287 18.0957V18.0959Z" fill="black"/>
<path d="M2.82491 55.6606C1.63429 62.736 0.0505113 70.4062 0.0311398 70.4832C-0.106807 71.1348 0.223327 71.7957 0.828007 72.077C1.01886 72.1707 1.22912 72.2203 1.44206 72.2209C1.88068 72.2203 2.29453 72.0187 2.56573 71.6738C3.89029 70.0225 8.14316 65.8273 11.8489 66.2303C18.4731 66.9984 22.4093 62.8699 24.1462 59.4241L25.8169 61.0466C26.0841 61.3198 26.4518 61.4725 26.8341 61.4685C26.9359 61.4825 27.0397 61.4825 27.1415 61.4685C27.633 61.3513 28.0288 60.9883 28.1882 60.5089L30.2333 54.8349H30.2326C31.1146 54.5289 31.9797 54.1767 32.8248 53.7789C36.2428 57.0816 38.143 61.3438 38.7578 67.1134H38.7571C38.816 67.7014 39.041 68.2606 39.4067 68.7253C39.773 69.1893 40.2631 69.5396 40.8216 69.7344C41.1658 69.8596 41.5301 69.9246 41.8964 69.9259C42.7281 69.9112 43.5189 69.5657 44.0948 68.9663C51.631 61.5647 53.2722 52.9919 49.1446 42.8063C50.901 41.3666 52.7734 39.7628 54.7702 38.0063C60.9027 32.5038 65.4395 25.4499 67.9031 17.5875C67.934 17.5091 67.9601 17.4288 67.9795 17.3471C69.4232 12.7446 70.1739 7.95332 70.2067 3.12984C70.202 2.30283 69.8719 1.51131 69.2879 0.92544C68.704 0.340166 67.9138 0.00735428 67.0868 0H66.9234C62.1543 0.0515623 57.4192 0.805577 52.869 2.23663C52.7833 2.25203 52.6996 2.27815 52.6199 2.31364C44.7416 4.76918 37.6715 9.30278 32.153 15.4367C30.3484 17.4429 28.7452 19.2763 27.353 21.0717C17.1772 16.9339 8.60389 18.5853 1.19303 26.1215H1.1937C0.637223 26.688 0.315793 27.444 0.293028 28.2376C0.27026 29.0311 0.548166 29.8045 1.07116 30.4019C1.59416 30.9992 2.32406 31.3769 3.11356 31.4592C8.87391 32.0639 13.1548 33.9744 16.4576 37.3823C16.0531 38.2273 15.7002 39.0959 15.4015 39.9839L9.72758 42.029C9.24678 42.1797 8.88116 42.5741 8.76798 43.0656C8.66084 43.5471 8.80548 44.0493 9.15169 44.4002L10.5338 45.7824C7.93292 47.1263 3.7564 50.1216 2.82554 55.6609L2.82491 55.6606ZM12.7323 55.2287C12.8093 54.2684 14.3066 52.6077 15.9486 51.2255L18.5595 53.8364C16.0055 54.8348 13.5673 55.4301 12.7323 55.2286V55.2287ZM42.0689 67.0077C42.0012 67.0894 41.8881 67.1169 41.791 67.0754C41.6965 67.0452 41.6282 66.9622 41.6182 66.8638C40.9847 60.8444 38.9878 56.1119 35.5318 52.4638C39.4827 50.2018 43.2514 47.6343 46.8018 44.7836C50.0945 53.5198 48.5777 60.6239 42.0689 67.0076L42.0689 67.0077ZM67.3271 3.13861C67.3051 6.88055 66.8182 10.6052 65.878 14.2266L55.99 4.33861C59.5612 3.4078 63.2336 2.91762 66.9239 2.87946C67.1255 2.87946 67.3271 2.94642 67.3271 3.13861H67.3271ZM34.2929 17.3658C39.3125 11.7803 45.7069 7.60707 52.8397 5.26004L64.9455 17.3658C62.6045 24.5043 58.4298 30.9033 52.8397 35.9229C39.4863 47.9229 31.8054 51.2739 29.522 52.07L24.8466 47.3946L38.7284 33.5135C39.2574 32.9463 39.242 32.0617 38.6936 31.5133C38.1451 30.9655 37.2612 30.9494 36.6934 31.4785L22.8116 45.3602L18.1362 40.6754H18.1369C18.4938 39.6891 18.9137 38.7275 19.3945 37.7953V37.7283C21.3143 33.926 25.4327 27.2256 34.2933 17.366L34.2929 17.3658ZM3.35171 28.5884C3.25193 28.5904 3.16353 28.5228 3.14077 28.425C3.10126 28.3259 3.12403 28.2127 3.19836 28.137C9.59213 21.6857 16.6956 20.1114 25.4326 23.4133C22.5773 26.9604 20.0085 30.7292 17.7525 34.6841C14.105 31.2281 9.36259 29.2218 3.35247 28.5882L3.35171 28.5884ZM16.1298 42.8056L20.7764 47.4423L19.6916 48.5271H19.6909C19.1344 49.0916 19.1344 49.9983 19.6909 50.5628C19.9588 50.8353 20.3264 50.988 20.7088 50.9847C21.1032 50.9706 21.4735 50.7891 21.726 50.4858L22.8108 49.4009L27.4573 54.0475L26.248 57.4171L12.8083 43.9775L16.1298 42.8056ZM12.6644 47.9893L13.9026 49.2181C12.0979 50.7542 9.55394 53.3745 9.88 55.8135C9.98581 56.6271 10.4747 57.3409 11.1952 57.734C11.8126 58.0353 12.4956 58.1773 13.182 58.1465C15.5726 58.1465 18.75 56.9558 20.7657 56.0826L21.9664 57.2056C21.1789 59.1255 18.5297 64.06 12.1742 63.3303C9.0062 62.9753 5.98203 64.6936 3.76477 66.4501C4.32124 63.5699 5.05115 59.7303 5.6846 56.0913C6.50089 51.2056 10.859 48.7581 12.6636 47.9418L12.6644 47.9893Z" fill="black"/>
</svg>
