<svg width="87" height="88" viewBox="0 0 87 88" fill="none" xmlns="http://www.w3.org/2000/svg">
<path d="M8.22971 87.2H78.9429C80.693 87.1769 82.3744 86.5048 83.6731 85.3101C84.9718 84.1149 85.7981 82.4786 85.9982 80.7073C86.4102 75.3578 86.3881 69.9825 85.9314 64.6376C85.0017 49.8406 62.4586 46.7414 61.5552 46.6324C58.0442 45.9919 56.4058 43.1173 55.6499 40.8892C58.9918 36.736 61.4227 31.9021 62.7793 26.7125C63.3334 24.6687 63.617 22.5586 63.6218 20.4383C63.6218 19.8525 63.6218 19.2801 63.5418 18.7078C65.8759 14.7359 65.8155 9.94702 65.1671 7.12656C64.9665 6.24764 64.5384 4.40157 63.0875 4.57192C59.9235 4.87849 53.5703 2.72592 51.3635 1.90173C37.7944 -3.72532 29.7831 4.76967 28.2118 6.64977C19.4243 10.0219 23.8845 26.8755 24.1056 27.6042C24.1629 27.8074 24.2662 27.9941 24.4065 28.1492C25.6282 33.1534 27.9438 37.8108 31.1811 41.7742C30.3118 43.818 28.6865 46.066 25.6974 46.611C24.714 46.7406 2.22465 49.8335 1.24025 64.582C0.572691 69.9439 0.514177 75.3659 1.0665 80.7405C1.30832 82.5105 2.16337 84.1334 3.47644 85.3177C4.79006 86.502 6.47504 87.1693 8.22877 87.1991L8.22971 87.2ZM46.0481 84.475H42.2499V84.4136C42.2457 81.9592 41.8851 79.5188 41.1799 77.1722L43.1861 62.1232H44.5236L46.985 77.7912H46.9844C46.3753 79.9651 46.0606 82.2132 46.0481 84.4741L46.0481 84.475ZM43.8347 55.453C44.1291 55.9846 46.1623 59.3975 46.1623 59.3975H41.4942C41.4942 59.3975 43.6742 55.8617 43.8347 55.453ZM42.8985 50.2073L39.16 47.0055C40.4796 47.3789 41.8428 47.5693 43.2126 47.5711C45.472 47.5718 47.6997 47.028 49.7131 45.9836L44.771 50.2074C44.7208 50.2512 44.6736 50.2992 44.6307 50.3503C44.5094 50.4975 44.3978 50.652 44.2963 50.8138H43.3732C43.2717 50.652 43.16 50.4975 43.0388 50.3503C42.9958 50.2992 42.9486 50.2512 42.8985 50.2074L42.8985 50.2073ZM68.0893 50.936C74.3887 52.905 82.8018 56.9858 83.2635 64.8542C83.6993 70.0438 83.722 75.2615 83.3303 80.4552C83.1918 81.5488 82.6729 82.5555 81.868 83.2928C81.0632 84.0306 80.0253 84.4497 78.9434 84.4746H48.722C48.7399 79.651 50.2936 74.9633 53.1495 71.1154L67.862 51.3584C67.9618 51.2325 68.0388 51.0895 68.0889 50.9356L68.0893 50.936ZM65.4143 50.1799L51.0231 69.4869C50.2266 70.5617 49.5172 71.701 48.9035 72.8932L47.1982 61.9932C47.3272 61.9354 47.4472 61.8575 47.5523 61.7614C47.5523 61.7614 47.7398 62.068 47.7863 62.1154V62.116C48.4748 63.015 49.5592 63.5028 50.6756 63.4171C51.7271 63.1823 52.6204 62.4798 53.1094 61.5029L61.4354 49.3626C62.0241 49.4514 63.4889 49.7306 65.4013 50.1801L65.4143 50.1799ZM58.4659 48.9536C58.4665 48.9536 50.7824 60.1669 50.7353 60.235C50.635 60.4047 50.4547 60.5081 50.2606 60.5081C50.0665 60.5081 49.8862 60.4047 49.7859 60.235C49.7859 60.235 46.6297 54.9486 46.5891 54.8938V54.8944C45.9782 54.0928 45.9782 52.9706 46.5891 52.1694L54.5269 45.4184L58.4659 48.9536ZM29.4154 9.10791C29.6841 9.01849 29.9182 8.84453 30.0842 8.61096C33.0953 4.84703 37.6225 2.68167 42.3891 2.7248C45.1346 2.75886 47.8472 3.33975 50.3741 4.43455C50.6953 4.55741 57.8372 7.30919 62.4116 7.30919V7.3098C63.0714 9.97158 62.9717 12.7695 62.1238 15.3753C61.1356 18.2713 58.8971 20.5443 56.0512 21.5407C55.9378 21.5881 44.4084 25.8666 36.9258 18.9385C36.5586 18.6235 36.0534 18.5334 35.6032 18.7025C35.1524 18.8716 34.8252 19.2737 34.7458 19.756L34.2842 23.3733L31.4623 21.4591C30.9631 21.1215 30.3045 21.1635 29.8507 21.5613L26.1923 24.7291C25.3635 20.3825 24.1794 10.7975 29.416 9.10787L29.4154 9.10791ZM27.0079 27.6036L30.7929 24.2995L33.6352 26.2345C34.9727 27.1541 36.7449 26.541 36.8117 24.729L37.0923 22.4808C39.4335 24.0574 42.0996 25.0647 44.8833 25.4235C47.2388 25.7307 49.6254 25.699 51.9721 25.3286C55.0615 24.8651 58.1849 24.0069 60.6658 22.0038C60.6992 22.0038 60.8867 21.8609 60.8933 21.8201C60.8055 23.2221 60.5816 24.6114 60.2246 25.9685C58.3993 32.6995 54.9015 38.5855 50.6083 42.1892C45.539 46.4404 37.9021 45.5407 33.2942 40.1455C30.2878 36.5069 28.1377 32.2175 27.0079 27.6032L27.0079 27.6036ZM33.1604 45.4734L41.0983 52.2244C41.7097 53.0261 41.7097 54.1478 41.0983 54.9494C41.0517 55.0042 37.4202 60.7467 37.3467 60.7334C37.2732 60.7202 29.2149 48.9544 29.2149 48.9544L33.1604 45.4734ZM26.0717 49.3091H26.1851L26.2251 49.384L34.5583 61.4962C34.9953 62.5077 35.9023 63.2273 36.9723 63.411C37.0947 63.4189 37.2178 63.4189 37.3401 63.411C38.3397 63.3776 39.2718 62.8897 39.8814 62.0826L39.9614 61.967V61.9664C40.1274 62.0436 40.3071 62.0856 40.4898 62.0893L39.1523 72.24C38.6299 71.2935 38.0471 70.3829 37.407 69.515L22.7679 49.9417C24.7138 49.4989 26.0048 49.3219 26.0716 49.3085L26.0717 49.3091ZM3.89667 64.9304V64.8148C4.41137 56.6398 13.587 52.5523 19.9467 50.6722L35.2073 71.1502C38.007 74.9847 39.5243 79.6348 39.5339 84.414V84.4754H8.23032C7.13404 84.4541 6.08084 84.0381 5.2574 83.3008C4.43341 82.5642 3.89243 81.5539 3.73002 80.4494C3.20815 75.2865 3.26428 70.0804 3.89722 64.9303L3.89667 64.9304Z" fill="#6BB8CB"/>
<path d="M63.3347 79.1542L66.6318 80.3464L66.8593 80.4212C67.3173 80.6019 67.8254 80.6019 68.2834 80.4212L71.8075 79.1542H71.8081C72.3682 78.9589 72.856 78.5928 73.2041 78.1049C73.5522 77.6177 73.7445 77.032 73.7541 76.4292V70.3934C73.7523 69.7413 73.4973 69.1166 73.0447 68.6562C72.5927 68.1952 71.9795 67.9354 71.3401 67.9336H63.8028C63.1633 67.9354 62.5501 68.1952 62.0975 68.6562C61.6455 69.1167 61.3906 69.7413 61.3888 70.3934V76.4292C61.3983 77.0319 61.5906 77.6177 61.9387 78.1049C62.2868 78.5928 62.7747 78.9589 63.3347 79.1542L63.3347 79.1542ZM64.0637 70.6793H71.0857V76.4292C71.069 76.4779 71.0415 76.5223 71.0057 76.5588L67.6619 77.7716H67.515L64.1713 76.5661L64.1707 76.5655C64.1289 76.535 64.0949 76.4955 64.0704 76.4493L64.0637 70.6793Z" fill="#6BB8CB"/>
<path d="M34.5594 10.8113C34.9039 10.8027 35.2323 10.6586 35.4753 10.4098C36.9597 8.88368 40.217 6.52661 45.3525 7.9025C45.7012 8.00894 46.0768 7.96576 46.3933 7.78389C46.7103 7.60201 46.9402 7.29667 47.0316 6.9378C47.1223 6.57953 47.0662 6.19876 46.8757 5.88308C46.6852 5.56801 46.3765 5.34478 46.0213 5.26631C43.858 4.61669 41.5621 4.57412 39.3767 5.14223C37.1907 5.71034 35.1964 6.8691 33.6029 8.49491C33.2219 8.88542 33.1091 9.47117 33.3168 9.97968C33.5246 10.4876 34.0119 10.8185 34.5522 10.8185L34.5594 10.8113Z" fill="#6BB8CB"/>
</svg>
