<svg width="85" height="85" viewBox="0 0 85 85" fill="none" xmlns="http://www.w3.org/2000/svg">
<path d="M60.7358 35.5726H22.9579C21.5979 35.5726 20.2932 35.0318 19.3315 34.0702C18.3692 33.1079 17.8291 31.8031 17.8291 30.4431V5.41204C17.8291 4.05197 18.3692 2.7473 19.3315 1.78499C20.2932 0.823326 21.5979 0.282593 22.9579 0.282593H60.7358C62.0964 0.282593 63.4011 0.823342 64.3628 1.78499C65.3251 2.74725 65.8652 4.05203 65.8652 5.41204V30.4431C65.8652 31.8032 65.3251 33.1078 64.3628 34.0702C63.4012 35.0318 62.0964 35.5726 60.7358 35.5726ZM22.9579 2.84764C22.2779 2.84764 21.6258 3.11771 21.1446 3.59884C20.6635 4.07936 20.3934 4.73202 20.3934 5.41213V30.4432C20.3934 31.1232 20.6635 31.7759 21.1446 32.2565C21.6258 32.7376 22.2778 33.0077 22.9579 33.0077H60.7358C61.4158 33.0077 62.0685 32.7376 62.5495 32.2565C63.03 31.776 63.3007 31.1233 63.3007 30.4432V5.41213C63.3007 4.7321 63.03 4.07944 62.5495 3.59884C62.0684 3.11771 61.4157 2.84764 60.7358 2.84764H22.9579Z" fill="black"/>
<path d="M18.7769 84.9184H5.31182C3.95175 84.9184 2.64708 84.3777 1.68477 83.416C0.723106 82.4538 0.182373 81.149 0.182373 79.789V66.3239C0.182373 64.9638 0.723122 63.6592 1.68477 62.6968C2.64703 61.7352 3.95181 61.1945 5.31182 61.1945H18.7769C20.137 61.1945 21.4416 61.7352 22.404 62.6968C23.3656 63.6591 23.9063 64.9639 23.9063 66.3239V79.789C23.9063 81.1491 23.3656 82.4537 22.404 83.416C21.4417 84.3777 20.1369 84.9184 18.7769 84.9184ZM5.31182 63.76C4.63178 63.76 3.97912 64.03 3.49853 64.5112C3.0174 64.9923 2.74733 65.6443 2.74733 66.3245V79.7895C2.74733 80.4696 3.0174 81.1222 3.49853 81.6028C3.97904 82.084 4.63171 82.354 5.31182 82.354H18.7769C19.4569 82.354 20.109 82.084 20.5902 81.6028C21.0713 81.1223 21.3414 80.4697 21.3414 79.7895V66.3245C21.3414 65.6444 21.0713 64.9924 20.5902 64.5112C20.1091 64.03 19.457 63.76 18.7769 63.76H5.31182Z" fill="black"/>
<path d="M49.2316 84.9184H35.7671C34.4065 84.9184 33.1018 84.3777 32.1401 83.416C31.1778 82.4538 30.6377 81.149 30.6377 79.789V66.3239C30.6377 64.9638 31.1778 63.6592 32.1401 62.6968C33.1017 61.7352 34.4065 61.1945 35.7671 61.1945H49.2316C50.5923 61.1945 51.897 61.7352 52.8587 62.6968C53.8209 63.6591 54.361 64.9639 54.361 66.3239V79.789C54.361 81.1491 53.8209 82.4537 52.8587 83.416C51.897 84.3777 50.5922 84.9184 49.2316 84.9184ZM35.7671 63.76C35.0865 63.76 34.4344 64.03 33.9534 64.5112C33.4729 64.9923 33.2022 65.6443 33.2022 66.3245V79.7895C33.2022 80.4696 33.4729 81.1222 33.9534 81.6028C34.4345 82.084 35.0866 82.354 35.7671 82.354H49.2316C49.9122 82.354 50.5643 82.084 51.0454 81.6028C51.5259 81.1223 51.7966 80.4697 51.7966 79.7895V66.3245C51.7966 65.6444 51.5259 64.9924 51.0454 64.5112C50.5642 64.03 49.9122 63.76 49.2316 63.76H35.7671Z" fill="black"/>
<path d="M79.6875 84.9184H66.2225C64.8624 84.9184 63.5577 84.3777 62.5954 83.416C61.6337 82.4538 61.093 81.149 61.093 79.789V66.3239C61.093 64.9638 61.6338 63.6592 62.5954 62.6968C63.5577 61.7352 64.8625 61.1945 66.2225 61.1945H79.6875C81.0476 61.1945 82.3523 61.7352 83.3146 62.6968C84.2763 63.6591 84.817 64.9639 84.817 66.3239V79.789C84.817 81.1491 84.2762 82.4537 83.3146 83.416C82.3523 84.3777 81.0476 84.9184 79.6875 84.9184ZM66.2225 63.76C65.5424 63.76 64.8904 64.03 64.4092 64.5112C63.928 64.9923 63.658 65.6443 63.658 66.3245V79.7895C63.658 80.4696 63.928 81.1222 64.4092 81.6028C64.8903 82.084 65.5423 82.354 66.2225 82.354H79.6875C80.3676 82.354 81.0202 82.084 81.5008 81.6028C81.982 81.1223 82.252 80.4697 82.252 79.7895V66.3245C82.252 65.6444 81.982 64.9924 81.5008 64.5112C81.0203 64.03 80.3677 63.76 79.6875 63.76H66.2225Z" fill="black"/>
<path d="M72.956 63.7584C72.2474 63.7584 71.6732 63.1842 71.6732 62.4762V52.4223C71.6732 52.0823 71.5382 51.7563 71.2979 51.5154C71.057 51.2752 70.731 51.1401 70.391 51.1401H14.6095C13.9014 51.1401 13.3272 51.7143 13.3272 52.4223V62.4762C13.3272 63.1842 12.753 63.7584 12.0444 63.7584C11.3364 63.7584 10.7622 63.1842 10.7622 62.4762V52.4223C10.7622 51.4023 11.1679 50.4236 11.8893 49.7022C12.6107 48.9808 13.5888 48.5751 14.6095 48.5751H70.391C71.4117 48.5751 72.3898 48.9808 73.1112 49.7022C73.8326 50.4236 74.2383 51.4023 74.2383 52.4223V62.4762C74.2383 62.8162 74.1033 63.1422 73.8624 63.3825C73.6221 63.6234 73.2961 63.7584 72.9561 63.7584H72.956Z" fill="black"/>
<path d="M41.8459 63.7584C41.1373 63.7584 40.5637 63.1842 40.5637 62.4762V34.2639C40.5637 33.5559 41.1373 32.9817 41.8459 32.9817C42.5539 32.9817 43.1281 33.5559 43.1281 34.2639V62.4762C43.1281 62.8162 42.9931 63.1423 42.7528 63.3825C42.512 63.6234 42.1859 63.7584 41.8459 63.7584Z" fill="black"/>
<path d="M58.1711 22.5315H25.5224C24.8144 22.5315 24.2402 21.9573 24.2402 21.2493C24.2402 20.5412 24.8144 19.967 25.5224 19.967H58.1711C58.8791 19.967 59.4533 20.5412 59.4533 21.2493C59.4533 21.9573 58.8791 22.5315 58.1711 22.5315Z" fill="black"/>
<path d="M58.1711 15.8888H25.5224C24.8144 15.8888 24.2402 15.3152 24.2402 14.6066C24.2402 13.8985 24.8144 13.3243 25.5224 13.3243H58.1711C58.8791 13.3243 59.4533 13.8985 59.4533 14.6066C59.4533 15.3152 58.8791 15.8888 58.1711 15.8888Z" fill="black"/>
<path d="M50.963 29.1618H32.7273C32.0193 29.1618 31.4451 28.5876 31.4451 27.879C31.4451 27.171 32.0193 26.5968 32.7273 26.5968H50.963C51.6716 26.5968 52.2458 27.171 52.2458 27.879C52.2458 28.5876 51.6716 29.1618 50.963 29.1618Z" fill="black"/>
<path d="M50.963 9.25888H32.7273C32.0193 9.25888 31.4451 8.68469 31.4451 7.97667C31.4451 7.26804 32.0193 6.69385 32.7273 6.69385H50.963C51.6716 6.69385 52.2458 7.26804 52.2458 7.97667C52.2458 8.68469 51.6716 9.25888 50.963 9.25888Z" fill="black"/>
</svg>
