<?xml version="1.0" standalone="no"?>
<!DOCTYPE svg PUBLIC "-//W3C//DTD SVG 20010904//EN"
 "http://www.w3.org/TR/2001/REC-SVG-20010904/DTD/svg10.dtd">
<svg version="1.0" xmlns="http://www.w3.org/2000/svg"
 width="512.000000pt" height="512.000000pt" viewBox="0 0 512.000000 512.000000"
 preserveAspectRatio="xMidYMid meet">

<g transform="translate(0.000000,512.000000) scale(0.100000,-0.100000)"
fill="#000000" stroke="none">
<path d="M822 3911 c-60 -21 -122 -75 -155 -136 l-22 -40 -3 -1144 c-2 -993 0
-1152 13 -1196 19 -65 80 -137 149 -173 l51 -27 1705 0 1705 0 51 27 c69 36
130 108 149 173 13 44 15 203 13 1196 l-3 1144 -22 40 c-12 23 -42 60 -66 82
-85 78 52 73 -1831 73 -1606 -1 -1683 -1 -1734 -19z m3433 -155 c69 -29 65 46
65 -1188 0 -1059 -1 -1115 -18 -1147 -10 -19 -34 -43 -53 -53 -32 -17 -105
-18 -1689 -18 -1584 0 -1657 1 -1689 18 -19 10 -43 34 -53 53 -17 32 -18 88
-18 1147 0 1230 -4 1158 63 1187 48 21 3341 22 3392 1z"/>
<path d="M1035 3535 c-36 -35 -33 -77 8 -119 17 -19 322 -287 676 -596 480
-419 658 -569 700 -589 47 -22 70 -26 141 -26 71 0 94 4 141 26 42 20 220 170
700 589 354 309 659 577 676 596 41 42 44 84 8 119 -53 54 -28 72 -746 -556
-365 -320 -682 -590 -704 -600 -51 -24 -99 -24 -150 0 -22 11 -339 280 -704
600 -718 629 -693 610 -746 556z"/>
</g>
</svg>
