<svg width="26" height="25" viewBox="0 0 26 25" fill="none" xmlns="http://www.w3.org/2000/svg">
<path d="M6.05078 6.42065H1.42113C0.63645 6.42065 0 7.05683 0 7.84195V15.8985C0 16.6729 0.620392 17.2999 1.39038 17.3168V23.4279C1.39038 24.213 2.01378 24.8492 2.78202 24.8492H4.69038C5.4584 24.8492 6.08164 24.213 6.08164 23.4279V17.3168C6.85201 17.3 7.47202 16.6729 7.47202 15.8985V7.84195C7.47223 7.05683 6.83584 6.42065 6.05072 6.42065H6.05078Z" fill="white"/>
<path d="M6.76854 3.03271C6.76854 4.7077 5.41082 6.06542 3.73583 6.06542C2.06084 6.06542 0.703125 4.7077 0.703125 3.03271C0.703125 1.35772 2.06084 0 3.73583 0C5.41082 0 6.76854 1.35772 6.76854 3.03271Z" fill="white"/>
<path d="M15.0588 6.42065H10.4292C9.64409 6.42065 9.00769 7.05683 9.00769 7.84195V15.8985C9.00769 16.6729 9.62808 17.2999 10.3983 17.3168V23.4279C10.3983 24.213 11.0217 24.8492 11.7899 24.8492H13.6981C14.4661 24.8492 15.0894 24.213 15.0894 23.4279V17.3168C15.86 17.3 16.4798 16.6729 16.4798 15.8985V7.84195C16.48 7.05683 15.8436 6.42065 15.0588 6.42065Z" fill="white"/>
<path d="M15.7771 3.03271C15.7771 4.7077 14.4194 6.06542 12.7444 6.06542C11.0694 6.06542 9.71167 4.7077 9.71167 3.03271C9.71167 1.35772 11.0694 0 12.7444 0C14.4194 0 15.7771 1.35772 15.7771 3.03271Z" fill="white"/>
<path d="M24.0661 6.42065H19.4369C18.6518 6.42065 18.0154 7.05683 18.0154 7.84195V15.8985C18.0154 16.6729 18.6358 17.2999 19.406 17.3168V23.4279C19.406 24.213 20.0292 24.8492 20.7976 24.8492H22.7058C23.4737 24.8492 24.0971 24.213 24.0971 23.4279V17.3168C24.8677 17.3002 25.4877 16.6729 25.4877 15.8985V7.84195C25.4877 7.05683 24.8515 6.42065 24.0662 6.42065H24.0661Z" fill="white"/>
<path d="M24.7839 3.03271C24.7839 4.7077 23.4262 6.06542 21.7512 6.06542C20.0762 6.06542 18.7185 4.7077 18.7185 3.03271C18.7185 1.35772 20.0762 0 21.7512 0C23.4262 0 24.7839 1.35772 24.7839 3.03271Z" fill="white"/>
</svg>
