<svg width="35" height="35" viewBox="0 0 35 35" fill="none" xmlns="http://www.w3.org/2000/svg">
<path d="M33.3196 24.6313C33.338 24.5107 26.9606 19.2082 24.9218 19.7053C23.9803 19.9073 23.3961 20.5785 22.232 21.914C22.116 22.0471 21.9 22.2954 21.6702 22.5528C21.4116 22.8422 21.005 22.9492 20.6373 22.8255C20.1858 22.6729 19.743 22.4976 19.3118 22.3004C16.0866 20.8543 13.5774 18.3013 12.1874 15.0516C11.9978 14.6171 11.8301 14.1714 11.6854 13.7173C11.5678 13.3475 11.6821 12.9435 11.9751 12.6892C12.2379 12.4621 12.4911 12.2487 12.6303 12.132C13.9808 10.9964 14.6636 10.4234 14.8804 9.48475C15.3974 7.46481 10.2199 0.99003 10.0992 1.00362C9.60306 0.41592 8.82553 0.0797133 7.99929 0.0666494C5.92667 0.155442 0.327463 7.31242 0.223365 8.63002C0.211511 8.67852 0.185411 10.5388 1.09314 13.7196C2.02901 16.872 3.89946 21.3445 8.32607 25.9768C12.8763 30.4778 17.3132 32.4226 20.4478 33.4115C23.6105 34.3734 25.4708 34.3787 25.5197 34.3678C26.8392 34.2872 34.0917 28.8115 34.2163 26.7406C34.2175 25.9175 33.896 25.1362 33.3201 24.6317L33.3196 24.6313Z" fill="white"/>
</svg>
