<svg width="14" height="13" viewBox="0 0 14 13" fill="none" xmlns="http://www.w3.org/2000/svg">
<path d="M12.8981 8.93445C12.9047 8.891 10.6048 6.97998 9.8699 7.15879C9.53049 7.23143 9.31994 7.47316 8.90045 7.95409C8.85866 8.00203 8.78079 8.09144 8.698 8.18415C8.60482 8.28835 8.45822 8.32685 8.32567 8.28223C8.16286 8.22721 8.00321 8.16399 7.84774 8.0929C6.68481 7.57155 5.77983 6.65149 5.27832 5.48066C5.20988 5.32412 5.14938 5.16352 5.09714 4.9999C5.0547 4.86667 5.09585 4.72115 5.20147 4.62961C5.29619 4.54782 5.38744 4.47097 5.4376 4.42895C5.92434 4.02005 6.17041 3.81371 6.24845 3.4756C6.43458 2.74801 4.56715 0.414848 4.52365 0.419729C4.3447 0.207949 4.06435 0.086731 3.76647 0.0819154C3.01927 0.113628 1.00159 2.69111 0.964232 3.16575C0.959965 3.18322 0.950798 3.85338 1.27846 4.99933C1.61627 6.13509 2.29118 7.74649 3.88766 9.41583C5.52867 11.0379 7.12851 11.7391 8.25873 12.0957C9.39905 12.4426 10.0697 12.4448 10.0873 12.4409C10.563 12.412 13.177 10.4404 13.2216 9.6944C13.222 9.3979 13.1059 9.1164 12.8982 8.93457L12.8981 8.93445Z" fill="white"/>
</svg>
