<svg width="127" height="74" viewBox="0 0 127 74" fill="none" xmlns="http://www.w3.org/2000/svg">
<path d="M63.6221 0C74.8241 0 83.8704 9.08231 83.8704 20.5434C83.8704 31.7883 74.8227 40.8691 63.6221 40.8691C52.2049 40.8691 43.157 31.7868 43.157 20.5434C43.157 9.08249 52.2047 0 63.6221 0ZM63.6221 4.32519C54.5744 4.32519 47.4657 11.4611 47.4657 20.5434C47.4657 29.4097 54.5744 36.5454 63.6221 36.5454C72.4546 36.5454 79.5631 29.4095 79.5631 20.5434C79.5631 11.4611 72.4545 4.32519 63.6221 4.32519Z" fill="#6BB8CB"/>
<path d="M37.3406 72.2251C37.3406 73.306 36.2638 74.1715 34.9711 73.9548C33.8943 73.9548 33.0321 72.8739 33.2479 71.5763C34.9711 56.2231 47.8963 44.3308 63.6213 44.3308C79.1312 44.3308 92.2714 56.2238 93.9947 71.5763C93.9947 72.8739 93.1331 73.9548 92.0557 73.9548C90.763 74.1709 89.6862 73.306 89.6862 72.2251C88.1782 58.8183 76.9763 48.6553 63.6211 48.6553C50.266 48.6553 38.8477 58.8185 37.3411 72.2251H37.3406Z" fill="#6BB8CB"/>
<path d="M103.474 17.5166C112.307 17.5166 119.415 24.6525 119.415 33.3027C119.415 42.169 112.306 49.3047 103.474 49.3047C94.8576 49.3047 87.7482 42.1688 87.7482 33.3027C87.7482 24.6532 94.8569 17.5166 103.474 17.5166ZM103.474 21.8418C97.2271 21.8418 92.0569 27.0318 92.0569 33.3027C92.0569 39.7895 97.2271 44.9797 103.474 44.9797C109.936 44.9797 115.107 39.7897 115.107 33.3027C115.107 27.0318 109.936 21.8418 103.474 21.8418Z" fill="#6BB8CB"/>
<path d="M94.8566 57.9521C93.7798 58.6009 92.4871 58.1682 91.8408 57.0872C91.4096 56.0063 91.8408 54.7087 92.9176 54.0599C96.1487 52.5461 99.8109 51.4651 103.473 51.4651C115.106 51.4651 125.015 60.1146 126.738 71.5751C126.954 72.656 126.092 73.9537 125.015 73.9537C123.722 74.1697 122.646 73.3048 122.43 72.2239C121.138 62.7095 112.952 55.7898 103.474 55.7898C100.458 55.7898 97.4418 56.6546 94.8571 57.9524L94.8566 57.9521Z" fill="#6BB8CB"/>
<path d="M23.5534 17.5166C32.1699 17.5166 39.2793 24.6525 39.2793 33.3027C39.2793 42.169 32.1706 49.3047 23.5534 49.3047C14.7208 49.3047 7.6123 42.1688 7.6123 33.3027C7.6123 24.6532 14.721 17.5166 23.5534 17.5166ZM23.5534 21.8418C17.0912 21.8418 11.9208 27.0318 11.9208 33.3027C11.9208 39.7895 17.091 44.9797 23.5534 44.9797C29.8004 44.9797 34.9706 39.7897 34.9706 33.3027C34.9706 27.0318 29.8004 21.8418 23.5534 21.8418Z" fill="#6BB8CB"/>
<path d="M4.59711 72.2251C4.38189 73.306 3.30439 74.1716 2.22761 73.9549C0.934887 73.9549 0.0732537 72.6572 0.288581 71.5763C2.01176 60.1155 11.9211 51.4664 23.5537 51.4664C27.2158 51.4664 30.8782 52.5473 34.3245 54.0611C35.1861 54.7099 35.6172 56.0075 35.1861 57.0885C34.5397 58.1694 33.2471 58.6022 32.1703 57.9533C29.5854 56.6557 26.5696 55.7907 23.5537 55.7907C14.0756 55.7907 5.88952 62.7105 4.59702 72.2249L4.59711 72.2251Z" fill="#6BB8CB"/>
</svg>
