<svg width="80" height="86" viewBox="0 0 80 86" fill="none" xmlns="http://www.w3.org/2000/svg">
<path d="M2.1776 0.143074C1.13483 0.241584 0.339137 1.12321 0.344016 2.17489V83.4404C0.344016 84.5622 1.24982 85.4715 2.36737 85.4715H61.0492C62.1668 85.4715 63.0725 84.5622 63.0725 83.4404V72.0755L75.8145 84.8684C76.1929 85.2603 76.7133 85.4821 77.2569 85.4842C77.8005 85.4871 78.3222 85.2695 78.7049 84.8811C79.0868 84.4935 79.2979 83.9669 79.2895 83.4212C79.281 82.8755 79.0544 82.356 78.6597 81.9797L65.7278 68.9963C69.1278 64.9332 71.1662 59.6888 71.1662 53.9809C71.1662 46.9137 68.0295 40.5879 63.0718 36.2994V20.4591H63.0725C63.0768 19.9113 62.86 19.3847 62.4717 18.9992L44.2588 0.714791V0.714083C43.8776 0.344132 43.3671 0.138609 42.8362 0.142873H23.613H23.6137C23.5502 0.140038 23.4866 0.140038 23.4238 0.142873C22.8865 0.166969 22.3803 0.405092 22.0174 0.804089C21.6553 1.20309 21.4653 1.73037 21.4908 2.2704C21.5155 2.80973 21.7541 3.31715 22.1523 3.68C22.5505 4.04357 23.0757 4.2328 23.6137 4.20656H39.8016V21.4757V21.4749C39.8016 22.5975 40.7074 23.5068 41.825 23.5068H59.0247V33.4746C55.7136 31.6525 51.9293 30.6179 47.8952 30.6179C35.067 30.6179 24.6253 41.1024 24.6253 53.9822C24.6253 66.8615 35.0678 77.3466 47.8952 77.3466C51.9293 77.3466 55.7128 76.3119 59.0247 74.4898V81.4104H4.38959V4.20894H15.519L15.5197 4.20823C16.0612 4.21603 16.5837 4.00483 16.9692 3.62354C17.3553 3.24154 17.5721 2.71994 17.5721 2.17636C17.5721 1.63207 17.3553 1.11117 16.9692 0.729176C16.5837 0.347178 16.0612 0.136702 15.5197 0.144486H2.36694C2.3034 0.141651 2.24057 0.141651 2.17702 0.144486L2.1776 0.143074ZM43.8502 6.0473L57.193 19.4433H43.8502V6.0473ZM47.8971 34.6804C58.538 34.6804 67.1203 43.2975 67.1203 53.9807C67.1203 57.9212 65.9342 61.5971 63.9271 64.6467C63.3432 61.065 61.1292 58.0295 58.0779 56.4251C58.678 55.0552 59.0267 53.5357 59.0267 51.9489C59.0267 45.8016 54.0198 40.7747 47.8973 40.7747C41.7748 40.7747 36.7678 45.8016 36.7678 51.9489C36.7678 53.5357 37.1159 55.0544 37.7167 56.4251C34.6653 58.0296 32.4513 61.0657 31.8675 64.6467C29.8604 61.5971 28.6742 57.9204 28.6742 53.9807C28.6742 43.2969 37.2571 34.6804 47.8975 34.6804H47.8971ZM47.8971 44.8382C51.8323 44.8382 54.9798 47.9976 54.9798 51.9485C54.9798 55.8995 51.8332 59.0589 47.8971 59.0589C43.9619 59.0589 40.8144 55.8995 40.8144 51.9485C40.8144 47.9968 43.961 44.8382 47.8971 44.8382ZM39.9927 59.8216C42.0126 61.8656 44.8197 63.1227 47.8971 63.1227C50.9745 63.1227 53.7817 61.8655 55.8015 59.8216C58.18 60.9045 60.0381 63.5289 60.0381 66.5196V68.964C56.7297 71.6705 52.5113 73.2814 47.8969 73.2814C43.2825 73.2814 39.0641 71.6713 35.7557 68.964V66.5196C35.7557 63.5289 37.6139 60.9046 39.9924 59.8216H39.9927Z" fill="#6BB8CB"/>
</svg>
