<svg width="84" height="97" viewBox="0 0 84 97" fill="none" xmlns="http://www.w3.org/2000/svg">
<path d="M42.1535 48.2515C32.7055 48.2515 25.0464 40.5584 25.0464 31.0684C25.0464 21.5784 32.7048 13.8853 42.1535 13.8853C51.6023 13.8853 59.2607 21.5784 59.2607 31.0684C59.2607 40.5577 51.6023 48.2515 42.1535 48.2515ZM42.1535 45.3878C50.0265 45.3878 56.4091 38.977 56.4091 31.0689C56.4091 23.1603 50.0266 16.7494 42.1535 16.7494C34.2804 16.7494 27.898 23.1602 27.898 31.0689C27.898 38.9768 34.2804 45.3878 42.1535 45.3878ZM19.3441 64.0019C18.5565 64.0019 17.9186 63.3612 17.9186 62.5701C17.9186 61.7797 18.5565 61.1383 19.3441 61.1383H64.963C65.7506 61.1383 66.3885 61.7797 66.3885 62.5701C66.3885 63.3612 65.7506 64.0019 64.963 64.0019H19.3441ZM3.66304 3.8629V94.0731C3.66304 94.8642 3.02446 95.505 2.23755 95.505C1.44999 95.505 0.811401 94.8642 0.811401 94.0731V2.43182C0.811401 1.64076 1.44999 1 2.23755 1H82.0691C82.8566 1 83.4952 1.64076 83.4952 2.43182V94.0731C83.4952 94.8642 82.8566 95.505 82.0691 95.505C81.2822 95.505 80.6436 94.8642 80.6436 94.0731V3.8629H3.66304ZM19.3441 79.7539C18.5565 79.7539 17.9186 79.1125 17.9186 78.3221C17.9186 77.531 18.5565 76.8896 19.3441 76.8896H64.963C65.7506 76.8896 66.3885 77.531 66.3885 78.3221C66.3885 79.1125 65.7506 79.7539 64.963 79.7539H19.3441ZM19.3441 95.5046C18.5565 95.5046 17.9186 94.8638 17.9186 94.0727C17.9186 93.2817 18.5565 92.6409 19.3441 92.6409H42.1535C42.9411 92.6409 43.579 93.2817 43.579 94.0727C43.579 94.8638 42.9411 95.5046 42.1535 95.5046H19.3441ZM45.4214 27.1925C45.9786 26.6335 46.881 26.6335 47.4376 27.1925C47.9948 27.7522 47.9948 28.6586 47.4376 29.2176L41.7355 34.9455C41.179 35.5045 40.2759 35.5045 39.7194 34.9455L36.8683 32.0811C36.3111 31.5221 36.3111 30.6157 36.8683 30.0567C37.4249 29.497 38.3273 29.497 38.8845 30.0567L40.7274 31.9078L45.4214 27.1925Z" fill="#6BB8CB" stroke="#6BB8CB"/>
</svg>
