<?xml version="1.0" standalone="no"?>
<!DOCTYPE svg PUBLIC "-//W3C//DTD SVG 20010904//EN"
 "http://www.w3.org/TR/2001/REC-SVG-20010904/DTD/svg10.dtd">
<svg version="1.0" xmlns="http://www.w3.org/2000/svg"
 width="200.000000pt" height="200.000000pt" viewBox="0 0 200.000000 200.000000"
 preserveAspectRatio="xMidYMid meet">

<g transform="translate(0.000000,200.000000) scale(0.100000,-0.100000)"
fill="#000000" stroke="none">
<path d="M740 1744 c-137 -19 -263 -49 -318 -76 -53 -27 -108 -86 -133 -144
-65 -147 -64 -628 2 -768 26 -57 87 -118 142 -145 97 -46 495 -101 629 -86 78
8 100 -4 248 -129 69 -58 128 -106 133 -106 8 0 8 0 8 131 0 142 2 147 83 180
175 71 219 180 219 539 1 420 -59 520 -348 579 -215 43 -462 52 -665 25z m608
-286 c8 -8 12 -45 12 -99 0 -115 -4 -119 -119 -119 -54 0 -91 -4 -99 -12 -9
-9 -12 -72 -12 -223 0 -115 -5 -217 -10 -225 -7 -12 -32 -15 -115 -15 -83 0
-108 3 -115 15 -5 8 -10 110 -10 225 0 151 -3 214 -12 223 -8 8 -45 12 -99 12
-115 0 -119 4 -119 119 0 54 4 91 12 99 17 17 669 17 686 0z"/>
</g>
</svg>
