<?xml version="1.0" standalone="no"?>
<!DOCTYPE svg PUBLIC "-//W3C//DTD SVG 20010904//EN"
 "http://www.w3.org/TR/2001/REC-SVG-20010904/DTD/svg10.dtd">
<svg version="1.0" xmlns="http://www.w3.org/2000/svg"
 width="512.000000pt" height="512.000000pt" viewBox="0 0 512.000000 512.000000"
 preserveAspectRatio="xMidYMid meet">

<g transform="translate(0.000000,512.000000) scale(0.100000,-0.100000)"
fill="#000000" stroke="none">
<path d="M2510 4261 c-14 -4 -39 -15 -55 -24 -17 -9 -372 -310 -790 -669 -843
-724 -809 -690 -803 -805 5 -77 42 -136 108 -172 56 -31 139 -33 192 -5 20 10
342 280 714 599 372 319 680 580 685 580 4 0 313 -261 686 -581 373 -320 694
-589 713 -600 51 -26 135 -24 190 7 66 36 103 95 108 172 6 115 40 81 -803
805 -418 359 -777 662 -797 673 -44 22 -112 32 -148 20z" fill="#fff"/>
<path d="M2475 2541 c-49 -23 -1550 -1310 -1585 -1359 -21 -30 -25 -45 -25
-112 0 -67 3 -81 27 -116 43 -61 90 -88 162 -92 40 -3 74 1 96 10 19 8 343
279 719 601 376 323 687 587 691 587 4 0 315 -264 691 -587 376 -322 700 -593
719 -601 54 -22 149 -12 196 21 104 72 126 211 50 309 -38 47 -1530 1320
-1571 1339 -51 24 -119 24 -170 0z" fill="#fff"/>
</g>
</svg>
